<?xml version="1.0" standalone="no"?>
<!DOCTYPE svg PUBLIC "-//W3C//DTD SVG 20010904//EN"
 "http://www.w3.org/TR/2001/REC-SVG-20010904/DTD/svg10.dtd">
<svg version="1.0" xmlns="http://www.w3.org/2000/svg"
 width="1280.000000pt" height="1115.000000pt" viewBox="0 0 1280.000000 1115.000000"
 preserveAspectRatio="xMidYMid meet">
<metadata>
Created by potrace 1.15, written by Peter Selinger 2001-2017
</metadata>
<g transform="translate(0.000000,1115.000000) scale(0.100000,-0.100000)"
fill="#000000" stroke="none">
<path d="M6190 11129 c0 -35 66 -124 114 -154 98 -60 207 -26 274 85 40 68 43
94 5 57 -44 -41 -117 -69 -183 -69 -66 0 -139 28 -182 69 -20 19 -28 22 -28
12z"/>
<path d="M6152 11077 c-28 -62 -48 -88 -111 -137 -53 -42 -72 -80 -51 -105 30
-36 106 0 155 74 30 44 46 122 36 176 l-7 40 -22 -48z"/>
<path d="M6618 11088 c-6 -108 20 -177 85 -233 44 -38 86 -45 107 -20 21 25 2
63 -51 105 -62 49 -84 75 -110 135 -11 25 -22 45 -24 45 -3 0 -6 -15 -7 -32z"/>
<path d="M6250 10971 c0 -21 64 -93 105 -116 l45 -27 45 27 c41 23 105 95 105
116 0 5 -28 -5 -62 -21 -35 -17 -74 -30 -88 -30 -14 0 -53 13 -87 30 -35 16
-63 26 -63 21z"/>
<path d="M6162 10902 c-46 -71 -90 -106 -166 -132 -72 -23 -99 -51 -90 -87 17
-64 133 -36 219 53 52 53 77 114 73 174 l-3 43 -33 -51z"/>
<path d="M6600 10903 c1 -61 28 -121 79 -172 85 -85 198 -111 215 -48 9 36
-18 64 -90 87 -75 25 -120 61 -166 131 -17 27 -33 49 -35 49 -2 0 -3 -21 -3
-47z"/>
<path d="M6301 10818 c20 -40 59 -87 80 -99 16 -8 26 -7 45 6 25 16 88 105 80
112 -2 3 -22 -5 -45 -16 -50 -26 -72 -26 -121 -1 -50 25 -53 25 -39 -2z"/>
<path d="M6180 10746 c-61 -81 -119 -112 -235 -126 -99 -12 -125 -27 -125 -71
0 -63 87 -75 216 -29 127 44 198 130 192 233 l-3 52 -45 -59z"/>
<path d="M6570 10753 c1 -109 67 -189 194 -233 129 -46 216 -34 216 29 0 44
-26 59 -125 71 -117 14 -173 45 -237 129 l-48 62 0 -58z"/>
<path d="M6350 10704 c0 -10 43 -74 50 -74 7 0 50 64 50 74 0 5 -11 1 -25 -8
-23 -15 -27 -15 -50 0 -14 9 -25 13 -25 8z"/>
<path d="M6210 10612 c-59 -93 -109 -115 -322 -147 -74 -11 -97 -19 -117 -40
-21 -20 -24 -29 -15 -43 38 -63 176 -68 291 -12 121 60 209 174 201 261 l-3
35 -35 -54z"/>
<path d="M6550 10629 c1 -139 172 -286 343 -296 56 -3 80 0 106 14 53 28 61
48 30 78 -21 21 -43 29 -123 41 -209 31 -252 51 -315 145 l-41 61 0 -43z"/>
<path d="M6241 10500 c-43 -63 -115 -131 -165 -157 -43 -22 -72 -27 -211 -37
-122 -8 -168 -15 -188 -29 -112 -73 -40 -156 111 -129 92 16 212 55 283 93 83
45 164 134 185 204 22 77 16 100 -15 55z"/>
<path d="M6531 10514 c-2 -54 31 -125 84 -182 82 -88 222 -154 397 -184 151
-27 223 56 111 129 -20 14 -66 21 -188 29 -138 10 -168 15 -211 37 -46 23
-120 94 -171 162 -19 27 -22 28 -22 9z"/>
<path d="M6195 10286 c-73 -75 -154 -119 -278 -151 -50 -13 -83 -24 -72 -25
40 0 141 31 212 65 69 34 173 118 194 156 14 27 11 24 -56 -45z"/>
<path d="M6549 10332 c21 -39 124 -122 194 -157 71 -34 172 -65 212 -65 11 1
-22 12 -72 25 -124 32 -205 76 -281 153 -35 35 -59 55 -53 44z"/>
<path d="M5720 10091 c-107 -35 -204 -94 -277 -170 -30 -31 -83 -138 -82 -166
0 -11 6 -2 13 20 47 147 188 265 378 315 40 10 62 19 48 19 -14 0 -50 -8 -80
-18z"/>
<path d="M7048 10090 c190 -50 331 -168 378 -315 7 -22 13 -31 13 -20 1 28
-52 135 -82 166 -47 49 -112 97 -172 127 -66 33 -157 62 -189 61 -12 0 12 -9
52 -19z"/>
<path d="M5860 10076 c-171 -38 -289 -96 -365 -178 -54 -58 -85 -126 -85 -187
0 -23 4 -20 34 24 44 66 117 132 171 156 31 14 84 22 182 29 190 14 197 15
232 56 34 38 36 46 21 74 -20 38 -91 48 -190 26z"/>
<path d="M6784 10076 c-28 -13 -44 -33 -44 -56 0 -5 14 -25 31 -44 35 -41 42
-42 232 -56 98 -7 151 -15 182 -29 54 -24 127 -90 171 -156 30 -44 34 -47 34
-24 0 61 -31 129 -85 187 -78 84 -194 140 -368 177 -83 18 -113 18 -153 1z"/>
<path d="M5680 9880 c-78 -28 -157 -87 -203 -153 -33 -46 -41 -67 -45 -114
l-5 -58 39 57 c44 65 92 104 144 118 19 5 89 18 155 30 96 16 124 24 143 44
21 20 22 27 12 46 -27 50 -141 65 -240 30z"/>
<path d="M6923 9886 c-17 -8 -37 -24 -43 -36 -10 -19 -9 -26 12 -46 19 -20 47
-28 143 -44 66 -12 136 -25 155 -30 52 -14 100 -53 143 -116 l37 -56 0 43 c0
136 -176 287 -345 296 -47 2 -81 -1 -102 -11z"/>
<path d="M5685 9721 c-86 -24 -162 -69 -195 -114 -33 -45 -55 -132 -42 -166 7
-21 10 -19 40 28 55 84 156 141 251 141 46 0 102 16 113 32 15 25 8 67 -14 82
-28 20 -77 19 -153 -3z"/>
<path d="M6962 9724 c-22 -15 -29 -57 -14 -82 11 -16 67 -32 113 -32 95 0 196
-57 251 -141 30 -47 33 -49 40 -28 13 34 -9 121 -42 166 -35 47 -118 94 -206
117 -78 20 -114 20 -142 0z"/>
<path d="M5353 9685 c0 -27 2 -38 4 -22 2 15 2 37 0 50 -2 12 -4 0 -4 -28z"/>
<path d="M7443 9685 c0 -27 2 -38 4 -22 2 15 2 37 0 50 -2 12 -4 0 -4 -28z"/>
<path d="M5300 9634 c0 -37 -56 -117 -112 -161 -82 -63 -93 -123 -23 -123 30
0 44 8 83 48 29 28 52 63 60 88 15 50 16 150 2 159 -5 3 -10 -1 -10 -11z"/>
<path d="M7487 9643 c-11 -11 -8 -113 5 -157 8 -25 31 -60 60 -88 39 -40 53
-48 83 -48 69 0 59 61 -20 121 -56 42 -90 86 -110 145 -6 19 -15 31 -18 27z"/>
<path d="M5351 9574 c1 -32 4 -70 9 -84 4 -14 5 11 2 55 -6 95 -12 113 -11 29z"/>
<path d="M7442 9584 c-1 -28 -4 -67 -7 -85 l-5 -34 11 33 c5 19 8 57 6 85 l-3
52 -2 -51z"/>
<path d="M5612 9540 c-93 -62 -139 -143 -130 -230 l3 -33 33 51 c44 69 92 108
154 127 91 27 121 61 91 104 -24 35 -80 28 -151 -19z"/>
<path d="M7037 9559 c-30 -43 0 -77 91 -104 62 -19 110 -58 154 -127 l33 -51
3 33 c2 19 1 48 -2 65 -23 123 -228 258 -279 184z"/>
<path d="M5316 9451 c-10 -19 -38 -56 -63 -82 -37 -39 -58 -52 -115 -70 -93
-30 -126 -78 -76 -113 30 -21 50 -20 102 5 107 50 180 153 174 245 l-3 49 -19
-34z"/>
<path d="M7462 9421 c5 -74 44 -141 112 -192 67 -51 120 -67 154 -48 62 34 32
87 -66 118 -57 18 -78 31 -115 70 -25 26 -52 62 -61 79 -9 18 -19 32 -22 32
-4 0 -4 -27 -2 -59z"/>
<path d="M5371 9455 c-1 -6 12 -49 28 -95 16 -47 30 -80 30 -75 1 6 -12 49
-28 95 -16 47 -30 80 -30 75z"/>
<path d="M7396 9374 c-15 -47 -26 -87 -24 -89 2 -3 17 34 32 81 15 47 26 87
24 89 -2 3 -17 -34 -32 -81z"/>
<path d="M5593 9381 c-72 -52 -113 -153 -95 -236 l8 -40 26 56 c18 39 45 72
92 114 73 65 90 100 61 122 -28 20 -48 16 -92 -16z"/>
<path d="M7115 9397 c-29 -22 -12 -57 61 -122 47 -42 74 -75 92 -114 l26 -56
8 40 c18 83 -23 184 -95 236 -44 32 -64 36 -92 16z"/>
<path d="M5337 9298 c-55 -94 -143 -144 -272 -155 -54 -5 -74 -11 -92 -29 -28
-28 -29 -48 -3 -74 26 -26 97 -26 183 0 142 44 221 134 215 247 l-3 58 -28
-47z"/>
<path d="M7430 9283 c0 -115 77 -200 219 -243 84 -26 155 -26 181 0 26 26 25
46 -3 74 -18 18 -38 24 -92 29 -128 11 -217 62 -271 153 -14 24 -28 44 -30 44
-2 0 -4 -26 -4 -57z"/>
<path d="M5437 9220 c9 -92 23 -146 16 -66 -3 39 -9 81 -14 95 -5 16 -6 5 -2
-29z"/>
<path d="M7357 9238 c-11 -61 -20 -153 -14 -148 6 6 28 172 23 177 -2 2 -6
-11 -9 -29z"/>
<path d="M5375 9185 c-19 -45 -69 -107 -103 -130 -40 -26 -118 -46 -250 -65
-129 -19 -170 -69 -93 -114 48 -28 147 -26 221 3 142 55 252 193 238 297 -4
26 -5 27 -13 9z"/>
<path d="M7412 9154 c3 -27 13 -66 22 -86 77 -162 319 -264 445 -187 69 42 23
91 -101 109 -132 19 -210 39 -250 65 -35 23 -98 102 -98 124 0 5 -5 13 -11 17
-9 5 -10 -7 -7 -42z"/>
<path d="M5372 9018 c-48 -70 -135 -144 -189 -161 -27 -9 -93 -18 -148 -22
-190 -11 -207 -15 -242 -50 -40 -40 -42 -67 -5 -95 24 -20 35 -22 107 -17 79
6 226 46 296 82 104 53 177 136 205 233 22 73 13 84 -24 30z"/>
<path d="M7395 9025 c16 -102 91 -203 195 -259 79 -43 226 -86 315 -93 72 -5
83 -3 108 17 36 28 34 55 -6 95 -35 35 -52 39 -242 50 -146 9 -187 25 -265
104 -36 36 -76 80 -88 96 l-23 30 6 -40z"/>
<path d="M5441 9030 c-1 -14 -4 -36 -6 -50 l-6 -25 11 25 c6 13 9 36 7 50 l-4
25 -2 -25z"/>
<path d="M7351 9024 c0 -16 4 -38 9 -49 6 -13 7 -5 3 25 -7 53 -13 66 -12 24z"/>
<path d="M5407 8911 c-24 -54 -92 -128 -152 -166 -79 -49 -150 -75 -274 -100
-197 -40 -300 -91 -398 -199 -72 -79 -95 -152 -96 -301 0 -101 4 -120 41 -235
22 -69 42 -134 45 -145 4 -17 5 -17 6 -2 0 9 -15 66 -34 125 -59 185 -66 292
-25 433 24 82 77 144 177 210 82 54 157 81 288 105 165 30 278 86 368 183 27
28 55 68 63 87 21 49 12 53 -9 5z"/>
<path d="M7376 8930 c10 -39 39 -81 91 -131 90 -88 191 -135 348 -163 131 -24
206 -51 288 -105 100 -66 153 -128 177 -210 41 -142 34 -248 -26 -435 -19 -60
-33 -116 -31 -125 4 -14 5 -14 6 1 0 9 20 75 42 145 39 118 42 136 42 238 -1
149 -24 222 -96 301 -98 108 -201 159 -398 199 -222 44 -359 130 -428 268 -12
23 -19 31 -15 17z"/>
<path d="M5015 8604 c-98 -17 -235 -66 -295 -104 -100 -64 -170 -169 -170
-254 0 -30 0 -30 34 20 48 71 128 140 184 158 26 8 88 17 137 21 203 13 214
15 249 46 91 79 16 140 -139 113z"/>
<path d="M7676 8609 c-45 -7 -77 -39 -69 -69 3 -11 20 -33 39 -49 35 -31 46
-33 249 -46 50 -4 111 -13 137 -21 56 -18 136 -87 184 -158 34 -50 34 -50 34
-20 0 88 -77 199 -181 261 -103 61 -313 116 -393 102z"/>
<path d="M4858 8420 c-150 -38 -273 -158 -294 -288 -8 -51 5 -54 30 -7 11 20
40 55 66 79 49 46 97 61 273 87 119 18 160 64 96 111 -30 22 -117 31 -171 18z"/>
<path d="M7806 8420 c-37 -12 -66 -39 -66 -61 0 -32 46 -56 127 -68 176 -26
224 -41 273 -87 26 -24 55 -59 66 -79 25 -47 38 -44 30 7 -17 108 -92 198
-211 255 -75 35 -168 50 -219 33z"/>
<path d="M4853 8255 c-174 -37 -273 -136 -273 -272 0 -40 14 -43 34 -5 21 37
65 85 101 109 42 28 90 42 181 52 82 10 104 23 104 66 0 50 -57 69 -147 50z"/>
<path d="M7855 8262 c-30 -6 -55 -32 -55 -57 0 -43 22 -56 104 -66 91 -10 139
-24 181 -52 36 -24 80 -72 101 -109 33 -63 47 -4 19 88 -15 53 -74 119 -130
147 -60 30 -183 58 -220 49z"/>
<path d="M4427 8130 c-17 -49 -53 -92 -130 -156 -43 -36 -50 -76 -17 -94 27
-14 53 -5 96 32 48 43 76 101 82 174 7 87 -8 108 -31 44z"/>
<path d="M8345 8157 c-11 -43 1 -129 24 -174 21 -43 77 -97 110 -108 30 -9 61
11 61 42 0 18 -12 36 -37 57 -77 64 -112 107 -131 158 -19 51 -20 52 -27 25z"/>
<path d="M4785 8088 c-53 -27 -122 -94 -146 -141 -22 -43 -37 -137 -22 -137 5
0 24 22 42 50 43 66 89 102 158 123 70 22 93 41 93 78 0 51 -56 63 -125 27z"/>
<path d="M7908 8099 c-23 -13 -23 -61 0 -82 9 -9 43 -24 75 -34 69 -21 115
-57 158 -123 18 -28 37 -50 42 -50 15 0 0 94 -22 137 -38 74 -155 163 -213
163 -13 0 -31 -5 -40 -11z"/>
<path d="M4446 7965 c-33 -61 -106 -121 -170 -139 -64 -19 -96 -45 -96 -80 0
-85 154 -44 240 65 41 52 60 101 60 157 0 42 -11 41 -34 -3z"/>
<path d="M8320 7968 c0 -56 19 -105 60 -157 86 -109 240 -150 240 -65 0 35
-32 61 -96 80 -64 18 -137 78 -170 139 -23 44 -34 45 -34 3z"/>
<path d="M4755 7925 c-87 -44 -150 -193 -116 -278 5 -14 12 -6 30 38 17 42 39
70 88 113 79 69 94 99 63 124 -27 22 -27 22 -65 3z"/>
<path d="M7981 7923 c-20 -16 -21 -22 -11 -48 6 -16 21 -36 33 -44 59 -42 103
-91 128 -146 l27 -60 8 40 c15 82 -25 191 -89 239 -47 35 -71 39 -96 19z"/>
<path d="M4478 7829 c-57 -96 -136 -143 -267 -158 -92 -10 -124 -29 -119 -69
2 -14 15 -34 30 -45 24 -18 33 -19 90 -10 195 33 304 135 296 276 l-3 52 -27
-46z"/>
<path d="M8290 7817 c0 -71 40 -151 97 -193 47 -35 141 -70 218 -80 42 -5 54
-2 78 16 15 12 27 31 27 44 0 39 -32 57 -121 67 -130 15 -211 62 -265 155 -14
24 -28 44 -30 44 -2 0 -4 -24 -4 -53z"/>
<path d="M4579 7625 c-4 -105 -8 -128 -33 -183 -51 -111 -177 -205 -339 -254
-44 -13 -50 -16 -22 -12 60 9 180 61 237 104 112 85 160 177 166 320 2 52 2
106 0 120 -2 14 -6 -29 -9 -95z"/>
<path d="M8214 7625 c1 -107 4 -126 28 -178 34 -72 71 -117 136 -167 57 -43
177 -95 237 -104 28 -4 22 -1 -22 12 -162 49 -288 143 -339 254 -24 53 -29 81
-35 183 l-7 120 2 -120z"/>
<path d="M4513 7710 c-20 -45 -73 -110 -106 -130 -41 -26 -75 -35 -221 -59
-124 -21 -159 -38 -154 -74 2 -11 16 -29 31 -41 23 -17 43 -21 105 -21 66 0
87 5 145 32 130 62 225 188 215 285 l-4 33 -11 -25z"/>
<path d="M8270 7697 c0 -103 91 -220 217 -280 58 -27 79 -32 145 -32 62 0 82
4 105 21 15 12 29 30 31 41 5 36 -30 53 -154 74 -146 24 -180 33 -221 59 -33
20 -88 88 -104 128 -12 31 -19 27 -19 -11z"/>
<path d="M4508 7543 c-41 -63 -107 -123 -164 -149 -41 -20 -78 -26 -204 -35
-162 -11 -198 -21 -226 -64 -40 -62 18 -110 121 -100 74 8 279 75 335 110 96
61 175 176 168 247 l-3 32 -27 -41z"/>
<path d="M8260 7549 c0 -76 76 -184 170 -244 56 -35 261 -102 335 -110 103
-10 161 38 121 100 -28 43 -64 53 -225 64 -206 15 -260 40 -354 165 -22 28
-41 53 -43 55 -2 2 -4 -11 -4 -30z"/>
<path d="M4103 7163 c9 -2 23 -2 30 0 6 3 -1 5 -18 5 -16 0 -22 -2 -12 -5z"/>
<path d="M8673 7163 c9 -2 23 -2 30 0 6 3 -1 5 -18 5 -16 0 -22 -2 -12 -5z"/>
<path d="M4048 7153 c6 -2 18 -2 25 0 6 3 1 5 -13 5 -14 0 -19 -2 -12 -5z"/>
<path d="M8728 7153 c6 -2 18 -2 25 0 6 3 1 5 -13 5 -14 0 -19 -2 -12 -5z"/>
<path d="M3970 7136 c-72 -27 -157 -75 -204 -117 -50 -45 -106 -114 -106 -132
0 -6 13 9 28 34 52 82 168 164 295 209 28 10 45 19 37 19 -8 0 -31 -6 -50 -13z"/>
<path d="M8817 7131 c131 -49 243 -129 295 -210 15 -25 28 -40 28 -34 0 18
-55 87 -106 132 -50 45 -185 116 -239 126 -16 3 -6 -4 22 -14z"/>
<path d="M4145 7133 c-75 -19 -211 -66 -252 -86 -111 -57 -203 -174 -203 -260
l0 -39 43 59 c97 131 143 152 360 168 173 13 184 16 224 65 20 25 15 57 -13
79 -20 16 -40 21 -83 20 -31 -1 -65 -4 -76 -6z"/>
<path d="M8498 7120 c-30 -23 -36 -55 -15 -80 40 -49 51 -52 224 -65 217 -16
263 -37 360 -168 l43 -59 0 39 c0 86 -92 203 -203 260 -77 39 -235 85 -312 90
-61 4 -73 2 -97 -17z"/>
<path d="M3937 6926 c-90 -37 -170 -106 -208 -179 -19 -36 -38 -137 -26 -137
3 0 16 19 30 43 32 54 83 102 127 121 19 8 94 24 165 36 98 16 136 27 153 43
81 75 -101 130 -241 73z"/>
<path d="M8640 6932 c-42 -23 -49 -51 -18 -79 17 -16 55 -27 153 -43 72 -12
146 -28 165 -36 44 -19 95 -67 127 -121 14 -24 27 -43 30 -43 12 0 -7 101 -26
137 -29 58 -108 131 -181 166 -83 41 -194 50 -250 19z"/>
<path d="M3636 6818 c-3 -13 -8 -66 -11 -118 l-4 -95 9 87 c4 48 11 101 15
118 8 35 0 41 -9 8z"/>
<path d="M9156 6812 c3 -18 10 -72 14 -120 l9 -87 -4 96 c-2 52 -9 106 -15
120 -9 22 -10 21 -4 -9z"/>
<path d="M3958 6775 c-76 -21 -134 -53 -176 -99 -44 -48 -62 -97 -61 -166 l0
-45 17 25 c38 56 110 124 149 142 23 10 83 25 134 32 66 10 96 19 106 32 19
25 16 51 -7 74 -24 24 -88 26 -162 5z"/>
<path d="M8680 6770 c-23 -23 -26 -49 -7 -74 10 -13 40 -22 106 -32 51 -7 111
-22 134 -32 39 -18 111 -86 149 -142 l17 -25 0 45 c2 132 -82 223 -242 266
-76 20 -133 18 -157 -6z"/>
<path d="M3571 6670 c-20 -58 -58 -107 -115 -149 -78 -58 -86 -121 -15 -121
36 0 102 57 130 113 24 46 33 120 21 162 l-8 30 -13 -35z"/>
<path d="M9205 6658 c-13 -83 16 -160 84 -221 44 -39 89 -49 110 -23 21 26 1
65 -54 106 -59 44 -86 77 -114 142 l-19 43 -7 -47z"/>
<path d="M3947 6626 c-61 -22 -138 -90 -169 -150 -19 -36 -38 -146 -25 -146 3
0 23 25 43 56 44 66 97 107 157 122 86 22 125 82 75 116 -27 19 -32 19 -81 2z"/>
<path d="M8773 6625 c-51 -35 -13 -95 74 -117 60 -15 113 -56 157 -122 20 -31
40 -56 43 -56 12 0 -6 110 -25 147 -52 101 -195 186 -249 148z"/>
<path d="M3631 6575 c0 -31 78 -283 79 -254 0 8 -12 49 -26 90 -14 41 -31 101
-39 134 -9 39 -14 49 -14 30z"/>
<path d="M9161 6577 c0 -15 -17 -76 -36 -136 -19 -59 -35 -114 -35 -122 1 -8
19 42 41 110 22 69 38 136 36 150 -4 26 -4 26 -6 -2z"/>
<path d="M3595 6510 c-4 -11 -31 -47 -62 -80 -48 -52 -63 -62 -124 -80 -72
-22 -93 -42 -87 -83 2 -12 15 -28 29 -36 23 -13 30 -12 81 11 104 48 171 131
184 230 7 47 -9 75 -21 38z"/>
<path d="M9184 6516 c-11 -28 14 -117 44 -161 34 -49 97 -98 156 -120 43 -16
47 -16 71 -1 14 9 25 26 25 37 0 40 -20 58 -88 78 -54 16 -76 30 -114 68 -25
26 -55 63 -67 82 -17 30 -21 32 -27 17z"/>
<path d="M3868 6435 c-54 -37 -89 -103 -95 -179 -3 -35 -1 -71 4 -80 8 -14 12
-9 24 26 13 40 71 108 142 165 18 15 27 31 27 51 0 49 -45 56 -102 17z"/>
<path d="M8843 6453 c-24 -9 -15 -63 14 -86 71 -57 129 -125 142 -165 12 -35
16 -40 24 -26 17 31 2 139 -27 188 -41 70 -107 108 -153 89z"/>
<path d="M3615 6354 c-10 -20 -41 -56 -68 -80 -53 -48 -108 -68 -212 -80 -77
-8 -105 -25 -105 -64 0 -65 96 -77 224 -29 119 44 184 121 193 229 7 69 -4 76
-32 24z"/>
<path d="M9153 6330 c9 -108 74 -185 193 -229 128 -48 224 -36 224 29 0 39
-28 56 -105 64 -104 12 -159 32 -212 80 -27 24 -58 60 -68 80 -28 52 -39 45
-32 -24z"/>
<path d="M3715 6165 c0 -75 3 -126 7 -113 3 13 6 64 6 113 0 50 -3 100 -6 113
-4 13 -7 -38 -7 -113z"/>
<path d="M9076 6269 c-8 -40 -6 -186 2 -217 4 -13 7 38 7 112 0 75 -1 136 -1
136 -1 0 -4 -14 -8 -31z"/>
<path d="M3637 6216 c-21 -45 -73 -104 -107 -121 -34 -18 -90 -30 -215 -49
-113 -17 -148 -35 -143 -74 8 -67 165 -83 280 -28 112 53 196 153 212 252 9
53 -6 64 -27 20z"/>
<path d="M9136 6241 c-11 -16 4 -81 30 -132 29 -58 108 -130 182 -165 115 -55
272 -39 280 28 5 39 -30 57 -143 74 -218 32 -256 52 -318 162 -14 25 -28 39
-31 33z"/>
<path d="M3626 6044 c-52 -71 -127 -127 -191 -142 -22 -6 -89 -13 -150 -17
-158 -8 -181 -13 -215 -45 -49 -45 -43 -84 40 -251 66 -132 70 -146 70 -208 0
-71 -19 -150 -52 -214 -18 -37 -18 -38 0 -28 25 13 87 83 105 118 43 83 46
194 11 350 -14 63 -24 116 -22 117 2 2 50 17 108 35 58 18 121 41 141 51 65
34 138 100 169 153 26 46 49 131 38 142 -2 2 -25 -25 -52 -61z"/>
<path d="M9124 6067 c17 -139 126 -238 335 -304 64 -20 117 -38 119 -39 2 -1
-8 -54 -22 -117 -35 -156 -32 -267 11 -350 18 -35 80 -105 105 -118 18 -10 18
-9 0 28 -33 64 -52 143 -52 214 0 62 4 76 70 208 83 167 89 206 40 251 -34 32
-57 37 -215 45 -60 4 -128 11 -150 17 -61 15 -136 69 -185 134 -63 85 -63 85
-56 31z"/>
<path d="M3681 5964 c-46 -106 -191 -211 -345 -250 -36 -9 -66 -22 -66 -28 1
-20 39 -141 39 -125 1 8 -6 39 -15 69 -18 60 -15 64 45 75 96 18 251 109 303
177 31 41 70 117 66 128 -2 5 -14 -16 -27 -46z"/>
<path d="M9090 6012 c0 -18 38 -91 68 -130 52 -68 207 -159 303 -177 60 -11
63 -15 45 -75 -9 -30 -16 -61 -15 -69 0 -16 38 105 39 125 0 6 -30 19 -66 28
-155 39 -292 139 -346 251 -15 33 -28 54 -28 47z"/>
<path d="M3330 5659 c0 -8 11 -31 25 -52 41 -59 106 -62 113 -4 4 33 -27 55
-91 63 -37 5 -47 4 -47 -7z"/>
<path d="M9384 5659 c-39 -11 -57 -31 -52 -60 8 -54 73 -49 113 8 14 21 25 43
25 50 0 15 -40 16 -86 2z"/>
<path d="M2964 5625 c-20 -30 -18 -40 36 -180 63 -162 64 -231 3 -327 -29 -47
-12 -50 38 -9 144 119 138 449 -11 526 -39 20 -47 19 -66 -10z"/>
<path d="M9764 5631 c-145 -89 -147 -404 -5 -522 50 -41 67 -38 38 9 -69 110
-65 154 39 425 17 43 17 50 3 75 -19 34 -36 37 -75 13z"/>
<path d="M3312 5464 c-1 -45 -4 -97 -7 -115 l-5 -34 10 33 c6 18 9 70 7 115
l-3 82 -2 -81z"/>
<path d="M9482 5455 c0 -49 3 -101 7 -115 4 -14 6 22 4 80 -6 133 -11 152 -11
35z"/>
<path d="M2860 5500 c-26 -26 -25 -36 7 -106 64 -139 60 -215 -15 -367 -9 -17
74 32 99 60 51 54 64 92 63 179 -1 174 -86 302 -154 234z"/>
<path d="M9859 5501 c-38 -30 -72 -140 -73 -235 -1 -87 12 -125 63 -179 25
-28 108 -77 99 -60 -75 152 -79 228 -15 367 32 70 33 80 7 106 -25 25 -50 25
-81 1z"/>
<path d="M2774 5344 c-15 -22 -16 -33 -4 -94 16 -85 9 -137 -28 -211 -16 -33
-27 -59 -25 -59 2 0 17 7 32 15 46 23 100 95 117 154 21 70 15 172 -10 200
-26 29 -62 27 -82 -5z"/>
<path d="M9944 5349 c-25 -28 -31 -130 -10 -200 17 -59 71 -131 117 -154 15
-8 30 -15 32 -15 2 0 -9 26 -25 59 -37 74 -44 126 -28 211 12 61 11 72 -4 94
-20 32 -56 34 -82 5z"/>
<path d="M3276 5265 c-24 -60 -98 -140 -171 -187 -68 -43 -67 -52 1 -12 66 39
138 113 169 173 14 29 25 57 23 62 -2 5 -11 -12 -22 -36z"/>
<path d="M9500 5302 c0 -7 12 -36 26 -64 30 -59 103 -134 168 -172 68 -40 69
-31 1 12 -75 48 -139 118 -171 185 -13 29 -24 46 -24 39z"/>
<path d="M2684 5212 c-19 -12 -31 -45 -38 -101 -9 -68 -27 -112 -67 -163 l-32
-39 39 16 c96 40 156 115 162 204 3 44 0 61 -13 74 -18 18 -33 21 -51 9z"/>
<path d="M10065 5203 c-13 -13 -16 -30 -13 -74 6 -89 66 -164 162 -204 l39
-16 -32 39 c-40 51 -58 95 -67 163 -12 97 -48 134 -89 92z"/>
<path d="M2960 5013 c-37 -14 -51 -22 -32 -19 31 5 129 45 107 44 -5 -1 -39
-12 -75 -25z"/>
<path d="M9797 5020 c23 -11 57 -23 75 -25 21 -4 13 1 -22 13 -90 32 -97 33
-53 12z"/>
<path d="M3053 4990 c-78 -45 -122 -114 -126 -197 -1 -47 16 -73 49 -73 30 0
54 35 54 80 0 59 27 133 66 178 42 50 29 53 -43 12z"/>
<path d="M9704 4978 c39 -45 66 -119 66 -178 0 -45 24 -80 54 -80 33 0 50 26
49 73 -4 83 -48 152 -126 197 -72 41 -85 38 -43 -12z"/>
<path d="M2773 4970 c-91 -24 -167 -60 -242 -115 -56 -41 -131 -126 -131 -148
0 -6 18 14 39 44 71 99 213 182 371 218 47 10 74 19 60 20 -14 0 -57 -9 -97
-19z"/>
<path d="M9990 4970 c160 -38 300 -121 371 -219 21 -30 39 -49 39 -43 0 26
-92 121 -162 168 -80 54 -197 98 -283 108 -35 4 -25 0 35 -14z"/>
<path d="M2882 4903 c-74 -75 -105 -209 -68 -298 13 -29 20 -35 45 -35 22 0
35 7 47 25 16 24 16 31 1 97 -13 63 -14 77 -1 127 8 31 24 71 35 89 23 40 23
42 4 42 -9 0 -37 -21 -63 -47z"/>
<path d="M9840 4946 c0 -3 9 -20 19 -38 11 -18 27 -58 35 -89 13 -50 12 -64
-1 -127 -15 -66 -15 -73 1 -97 12 -18 25 -25 47 -25 25 0 32 6 45 35 37 89 6
223 -68 298 -39 39 -78 60 -78 43z"/>
<path d="M2780 4891 c-70 -36 -120 -127 -120 -216 0 -89 50 -235 85 -249 35
-13 65 -6 81 20 17 24 16 28 -5 77 -52 118 -63 167 -52 232 6 33 21 81 34 107
13 27 21 48 18 48 -4 0 -22 -8 -41 -19z"/>
<path d="M9996 4863 c13 -27 29 -75 35 -108 11 -65 0 -114 -52 -232 -21 -49
-22 -53 -5 -77 17 -27 52 -34 85 -16 42 22 88 192 78 281 -10 84 -76 173 -143
193 -21 6 -21 6 2 -41z"/>
<path d="M2644 4832 c-83 -60 -129 -209 -105 -339 7 -37 24 -89 38 -116 67
-121 185 -110 138 13 -103 275 -105 297 -52 404 19 36 31 66 27 66 -4 0 -25
-13 -46 -28z"/>
<path d="M10137 4794 c53 -107 51 -129 -52 -404 -47 -124 71 -134 138 -12 15
27 32 81 39 120 22 130 -23 274 -106 334 -21 15 -42 28 -46 28 -4 0 8 -30 27
-66z"/>
<path d="M2506 4758 c-97 -100 -118 -227 -71 -430 39 -175 82 -248 144 -248
24 0 34 7 46 30 26 51 18 88 -50 229 -36 74 -70 154 -75 178 -13 54 7 158 44
235 14 29 23 54 20 57 -2 3 -29 -21 -58 -51z"/>
<path d="M10232 4803 c60 -125 83 -220 68 -286 -5 -24 -39 -104 -75 -178 -68
-141 -76 -178 -50 -229 32 -62 104 -29 146 65 30 68 69 251 69 326 0 94 -30
185 -81 243 -37 42 -88 81 -77 59z"/>
<path d="M2381 4653 c-6 -21 -11 -47 -10 -58 0 -11 7 5 14 35 15 63 12 81 -4
23z"/>
<path d="M10401 4690 c0 -3 6 -30 14 -60 14 -52 15 -53 10 -11 -5 34 -25 95
-24 71z"/>
<path d="M2365 4465 c2 -73 10 -122 30 -183 14 -46 28 -82 30 -80 2 2 -7 40
-21 83 -14 45 -29 124 -34 180 l-9 100 4 -100z"/>
<path d="M10427 4463 c-3 -64 -14 -126 -31 -178 -14 -43 -23 -81 -21 -83 2 -2
16 34 30 80 24 75 48 278 33 278 -3 0 -8 -44 -11 -97z"/>
<path d="M2225 4364 c-20 -20 -35 -57 -35 -87 0 -11 32 -86 71 -165 43 -90 72
-162 76 -191 6 -54 -17 -163 -48 -222 -11 -23 -18 -44 -14 -47 11 -11 94 82
115 129 31 73 41 173 25 261 -19 107 -32 160 -55 221 -32 85 -100 136 -135
101z"/>
<path d="M10530 4373 c-50 -18 -94 -96 -121 -211 -42 -180 -41 -282 1 -381 21
-47 104 -140 115 -129 4 3 -3 24 -14 47 -31 59 -54 168 -48 222 4 29 33 101
76 191 39 79 71 154 71 165 0 30 -15 67 -35 86 -17 18 -21 19 -45 10z"/>
<path d="M2436 4165 c14 -58 24 -83 18 -40 -3 22 -10 47 -15 55 -6 10 -7 5 -3
-15z"/>
<path d="M10351 4153 c-6 -21 -11 -45 -10 -53 0 -8 7 7 14 35 8 27 12 51 10
53 -2 2 -8 -13 -14 -35z"/>
<path d="M2126 4154 c-23 -22 -20 -73 8 -136 14 -30 36 -94 51 -141 24 -77 26
-91 16 -139 -7 -29 -23 -72 -37 -96 -14 -24 -24 -45 -21 -48 2 -2 22 9 44 25
63 46 105 140 111 245 7 131 -31 232 -107 283 -40 27 -45 28 -65 7z"/>
<path d="M10609 4147 c-76 -51 -114 -152 -107 -283 6 -105 48 -199 111 -245
22 -16 42 -27 44 -25 3 3 -7 24 -21 48 -14 24 -30 67 -37 96 -10 48 -8 62 16
139 15 47 37 111 51 141 28 63 31 114 8 136 -20 21 -25 20 -65 -7z"/>
<path d="M2462 4050 c0 -19 2 -27 5 -17 2 9 2 25 0 35 -3 9 -5 1 -5 -18z"/>
<path d="M10332 4050 c0 -19 2 -27 5 -17 2 9 2 25 0 35 -3 9 -5 1 -5 -18z"/>
<path d="M2030 4027 c-38 -19 -37 -58 2 -141 28 -61 33 -82 33 -146 0 -64 -5
-85 -31 -138 -17 -34 -29 -62 -27 -62 2 0 21 9 42 20 48 24 95 79 110 129 28
95 -3 267 -59 323 -32 32 -35 32 -70 15z"/>
<path d="M10701 4012 c-57 -56 -88 -227 -60 -323 15 -50 62 -105 110 -129 21
-11 40 -20 42 -20 2 0 -10 28 -27 62 -26 53 -31 74 -31 138 0 64 5 85 33 144
46 98 43 133 -16 150 -17 6 -29 0 -51 -22z"/>
<path d="M2473 3965 c0 -22 2 -30 4 -17 2 12 2 30 0 40 -3 9 -5 -1 -4 -23z"/>
<path d="M10323 3965 c0 -22 2 -30 4 -17 2 12 2 30 0 40 -3 9 -5 -1 -4 -23z"/>
<path d="M2461 3895 c0 -16 -4 -41 -6 -55 l-6 -25 11 25 c6 13 9 38 7 55 l-4
30 -2 -30z"/>
<path d="M10331 3889 c0 -19 4 -43 9 -54 6 -13 7 -2 3 30 -7 59 -13 72 -12 24z"/>
<path d="M1947 3879 c-30 -17 -35 -49 -20 -114 18 -74 11 -123 -27 -203 -16
-34 -26 -62 -22 -62 17 0 72 41 96 72 63 84 81 244 31 293 -27 28 -32 29 -58
14z"/>
<path d="M10795 3865 c-50 -49 -32 -209 31 -293 24 -31 79 -72 96 -72 4 0 -6
28 -22 62 -38 80 -45 129 -27 203 16 66 10 98 -22 114 -27 15 -28 14 -56 -14z"/>
<path d="M2422 3761 c-29 -65 -120 -147 -213 -194 -41 -21 -63 -35 -49 -31 86
22 232 141 271 220 11 25 20 47 17 49 -2 2 -14 -18 -26 -44z"/>
<path d="M10356 3790 c23 -87 179 -227 284 -254 14 -4 -8 10 -49 31 -92 46
-182 128 -216 196 -14 29 -23 41 -19 27z"/>
<path d="M1831 3721 c-11 -11 -22 -35 -25 -53 -15 -98 -19 -115 -33 -143 -8
-16 -27 -42 -41 -57 -14 -15 -23 -30 -21 -33 11 -11 111 49 139 83 32 40 60
110 60 154 0 27 -30 68 -50 68 -5 0 -19 -9 -29 -19z"/>
<path d="M10910 3720 c-11 -11 -20 -33 -20 -48 0 -44 28 -114 60 -154 28 -34
128 -94 139 -83 2 3 -7 18 -21 33 -36 39 -57 84 -64 139 -9 71 -23 112 -44
123 -25 13 -27 13 -50 -10z"/>
<path d="M2235 3521 c-89 -40 -141 -109 -152 -202 -5 -39 -2 -53 12 -69 39
-43 80 -9 90 77 9 70 37 138 72 175 34 36 27 41 -22 19z"/>
<path d="M10520 3532 c0 -5 11 -19 24 -31 33 -31 62 -103 71 -174 10 -86 51
-120 90 -77 39 43 -3 174 -75 231 -39 31 -110 64 -110 51z"/>
<path d="M2085 3520 c-13 -5 -14 -9 -5 -9 8 0 24 4 35 9 13 5 14 9 5 9 -8 0
-24 -4 -35 -9z"/>
<path d="M10685 3520 c11 -5 27 -9 35 -9 9 0 8 4 -5 9 -11 5 -27 9 -35 9 -9 0
-8 -4 5 -9z"/>
<path d="M2028 3503 c6 -2 18 -2 25 0 6 3 1 5 -13 5 -14 0 -19 -2 -12 -5z"/>
<path d="M10748 3503 c6 -2 18 -2 25 0 6 3 1 5 -13 5 -14 0 -19 -2 -12 -5z"/>
<path d="M1978 3493 c6 -2 18 -2 25 0 6 3 1 5 -13 5 -14 0 -19 -2 -12 -5z"/>
<path d="M10798 3493 c6 -2 18 -2 25 0 6 3 1 5 -13 5 -14 0 -19 -2 -12 -5z"/>
<path d="M1885 3476 c-22 -7 -64 -24 -93 -39 -169 -85 -256 -196 -267 -338
l-4 -64 10 65 c26 174 146 295 364 366 39 13 61 23 50 23 -11 0 -38 -6 -60
-13z"/>
<path d="M10905 3467 c99 -33 164 -69 233 -126 72 -60 116 -142 131 -241 l10
-65 -4 64 c-6 79 -39 154 -95 215 -69 75 -215 156 -305 170 -29 5 -20 0 30
-17z"/>
<path d="M2075 3451 c-43 -27 -71 -60 -94 -112 -61 -138 -18 -299 65 -244 25
16 26 20 19 73 -16 121 -12 163 22 235 18 37 29 67 25 67 -4 0 -20 -8 -37 -19z"/>
<path d="M10713 3403 c34 -72 38 -114 22 -235 -7 -53 -6 -57 19 -73 39 -26 72
-8 87 47 22 83 -10 209 -69 271 -24 25 -72 57 -86 57 -3 0 9 -30 27 -67z"/>
<path d="M1945 3413 c-94 -48 -130 -121 -123 -251 9 -161 76 -262 144 -217 32
21 30 50 -12 145 -40 91 -41 190 -1 274 15 32 26 60 25 62 -2 1 -16 -5 -33
-13z"/>
<path d="M10823 3418 c53 -121 59 -143 55 -202 -3 -36 -16 -87 -32 -126 -42
-96 -44 -124 -12 -145 68 -45 135 56 144 215 5 101 -6 146 -51 196 -32 37
-114 86 -104 62z"/>
<path d="M1799 3347 c-27 -20 -55 -55 -73 -91 -26 -49 -31 -72 -34 -151 -7
-146 35 -247 119 -291 35 -17 34 -17 53 2 24 23 20 60 -17 154 -78 200 -81
240 -27 347 16 31 28 59 26 61 -2 1 -23 -12 -47 -31z"/>
<path d="M10952 3374 c2 -5 16 -34 31 -65 43 -89 44 -129 7 -239 -18 -52 -41
-114 -51 -138 -23 -53 -24 -95 -3 -116 19 -19 18 -19 53 -2 78 41 121 136 121
266 0 94 -21 166 -63 220 -29 38 -106 98 -95 74z"/>
<path d="M1663 3278 c-82 -86 -113 -198 -93 -334 28 -181 78 -312 132 -340 36
-19 44 -18 68 8 39 42 28 100 -47 254 -67 136 -68 139 -68 218 1 79 5 94 62
224 11 25 -14 11 -54 -30z"/>
<path d="M11083 3308 c57 -130 61 -145 62 -224 0 -79 -1 -82 -67 -218 -76
-154 -87 -212 -48 -254 24 -26 32 -27 68 -8 54 28 104 159 132 340 20 136 -11
248 -93 334 -40 41 -65 55 -54 30z"/>
<path d="M1512 3010 c0 -14 2 -19 5 -12 2 6 2 18 0 25 -3 6 -5 1 -5 -13z"/>
<path d="M11282 3010 c0 -14 2 -19 5 -12 2 6 2 18 0 25 -3 6 -5 1 -5 -13z"/>
<path d="M1525 2920 c2 -38 17 -102 35 -152 16 -48 37 -113 45 -145 13 -49 14
-51 10 -15 -3 23 -21 89 -40 145 -20 56 -40 131 -45 167 l-9 65 4 -65z"/>
<path d="M11267 2918 c-3 -35 -22 -109 -41 -165 -20 -56 -38 -122 -41 -145 -4
-36 -3 -34 10 15 8 32 29 97 45 145 28 77 51 212 38 212 -3 0 -8 -28 -11 -62z"/>
<path d="M1365 2860 c-28 -53 -19 -91 55 -241 66 -133 70 -146 70 -209 0 -66
-20 -142 -55 -209 -9 -18 -15 -35 -12 -37 2 -2 24 14 49 35 59 53 98 138 105
235 6 79 -21 232 -59 334 -42 111 -119 158 -153 92z"/>
<path d="M11332 2856 c-38 -43 -64 -113 -92 -246 -40 -184 -10 -325 88 -411
25 -21 47 -37 49 -35 3 2 -3 19 -12 37 -35 67 -55 143 -55 209 0 63 4 76 70
209 74 150 83 188 55 241 -22 43 -63 41 -103 -4z"/>
<path d="M1269 2653 c-12 -31 -13 -26 51 -203 50 -139 51 -194 2 -285 -17 -30
-27 -55 -23 -55 16 0 75 51 98 85 41 61 55 114 56 210 0 114 -26 187 -83 239
-50 45 -86 48 -101 9z"/>
<path d="M11430 2644 c-57 -52 -83 -125 -83 -239 1 -96 15 -149 56 -210 23
-34 82 -85 98 -85 4 0 -6 25 -23 55 -49 91 -48 146 2 285 64 177 63 172 51
203 -15 39 -51 36 -101 -9z"/>
<path d="M1618 2463 c-9 -165 -63 -261 -191 -344 -77 -50 -143 -74 -285 -104
-159 -33 -264 -85 -353 -174 -66 -66 -110 -149 -108 -204 0 -12 7 2 15 31 25
96 63 148 151 214 82 60 168 96 296 123 196 42 298 93 389 194 64 70 89 141
96 264 2 53 2 97 0 97 -3 0 -8 -44 -10 -97z"/>
<path d="M11175 2465 c3 -125 27 -193 93 -266 91 -101 193 -152 389 -194 128
-27 214 -63 296 -123 88 -66 126 -118 151 -214 8 -29 15 -43 15 -31 2 55 -42
138 -108 204 -89 89 -194 141 -353 174 -142 30 -208 54 -285 104 -127 82 -180
176 -193 346 l-8 100 3 -100z"/>
<path d="M1167 2532 c-23 -25 -22 -39 12 -114 54 -119 55 -215 3 -315 -26 -49
-18 -53 38 -18 75 47 117 145 106 243 -9 72 -43 172 -69 200 -25 27 -68 29
-90 4z"/>
<path d="M11543 2528 c-26 -28 -60 -128 -69 -200 -11 -98 31 -196 106 -243 56
-35 64 -31 38 18 -52 100 -51 196 3 315 34 76 36 93 11 115 -26 24 -65 21 -89
-5z"/>
<path d="M1085 2380 c-13 -14 -16 -29 -11 -57 22 -140 21 -158 -17 -236 -30
-63 -32 -74 -17 -70 37 10 98 73 121 125 31 71 34 204 5 237 -24 26 -58 27
-81 1z"/>
<path d="M11634 2379 c-29 -33 -26 -166 5 -237 23 -52 84 -115 121 -125 15 -4
13 7 -17 70 -38 78 -39 96 -17 236 11 66 -49 103 -92 56z"/>
<path d="M976 2228 c-8 -13 -17 -50 -21 -83 -8 -66 -34 -126 -73 -167 -36 -39
-10 -36 58 5 70 41 112 106 118 182 3 35 0 60 -8 70 -19 22 -57 18 -74 -7z"/>
<path d="M11750 2235 c-8 -10 -11 -35 -8 -70 6 -76 48 -141 118 -182 68 -41
94 -44 58 -5 -39 41 -65 101 -73 167 -4 33 -13 70 -21 83 -17 25 -55 29 -74 7z"/>
<path d="M1370 2029 c-79 -47 -113 -93 -131 -179 -9 -43 -8 -55 5 -75 9 -14
25 -25 36 -25 27 0 60 47 60 85 0 50 26 124 60 172 35 48 25 55 -30 22z"/>
<path d="M11400 2007 c34 -48 60 -122 60 -172 0 -38 33 -85 60 -85 11 0 27 11
36 25 13 20 14 32 5 75 -18 86 -52 132 -131 179 -55 33 -65 26 -30 -22z"/>
<path d="M1245 1978 c-44 -23 -96 -84 -115 -135 -28 -75 -28 -181 1 -217 27
-34 63 -34 85 -1 15 24 16 32 2 95 -18 82 -11 134 27 211 15 28 25 52 23 54
-2 2 -12 -1 -23 -7z"/>
<path d="M11530 1985 c0 -3 11 -28 25 -56 38 -75 45 -128 27 -209 -14 -63 -13
-71 2 -95 22 -33 58 -33 85 1 17 21 21 41 21 95 0 88 -28 163 -77 211 -37 35
-83 64 -83 53z"/>
<path d="M1099 1929 c-51 -25 -104 -91 -119 -145 -24 -84 10 -256 62 -311 26
-28 61 -30 88 -3 26 26 25 29 -9 108 -60 137 -61 219 -5 321 13 24 23 45 22
47 -2 1 -19 -6 -39 -17z"/>
<path d="M11660 1946 c0 -2 11 -23 24 -47 56 -102 55 -184 -5 -321 -34 -79
-35 -82 -9 -108 46 -46 97 -13 131 84 45 130 35 242 -28 316 -29 33 -113 91
-113 76z"/>
<path d="M959 1867 c-77 -52 -114 -144 -113 -282 1 -109 26 -176 85 -230 41
-36 70 -44 86 -22 23 29 21 61 -8 136 -81 202 -87 260 -36 362 14 29 25 55 23
56 -1 2 -18 -7 -37 -20z"/>
<path d="M11802 1883 c79 -159 78 -192 -11 -414 -29 -75 -31 -107 -8 -136 16
-22 45 -14 86 22 136 123 110 442 -43 522 -15 8 -26 11 -24 6z"/>
<path d="M844 1820 c-36 -23 -75 -77 -100 -135 -39 -93 -26 -268 32 -439 50
-148 154 -183 171 -58 5 35 -4 60 -67 191 -66 139 -72 157 -72 215 0 64 19
140 54 209 10 20 17 37 16 37 -2 0 -17 -9 -34 -20z"/>
<path d="M11938 1803 c35 -69 55 -145 55 -209 0 -58 -7 -76 -73 -215 -63 -131
-72 -156 -67 -191 17 -125 121 -90 171 58 92 271 63 497 -74 577 l-31 19 19
-39z"/>
<path d="M674 1525 c0 -49 1 -71 3 -48 2 23 2 64 0 90 -2 26 -3 8 -3 -42z"/>
<path d="M12124 1525 c0 -49 1 -71 3 -48 2 23 2 64 0 90 -2 26 -3 8 -3 -42z"/>
<path d="M681 1412 c-1 -12 17 -79 40 -147 22 -68 45 -146 49 -172 l9 -48 -4
52 c-2 28 -20 98 -39 155 -20 57 -40 121 -45 143 -5 24 -9 31 -10 17z"/>
<path d="M12111 1412 c0 -13 -19 -79 -42 -145 -22 -67 -42 -144 -44 -172 l-4
-50 9 48 c4 26 27 104 50 174 22 69 39 135 37 147 -4 19 -4 19 -6 -2z"/>
<path d="M525 1387 c-36 -55 -32 -77 44 -237 44 -93 74 -169 78 -198 6 -55
-15 -149 -51 -223 -12 -27 -20 -49 -16 -49 21 0 93 79 116 128 52 107 41 306
-26 484 -22 61 -76 118 -110 118 -11 0 -26 -10 -35 -23z"/>
<path d="M12186 1379 c-66 -57 -120 -259 -114 -419 3 -78 9 -105 32 -152 23
-49 95 -128 116 -128 4 0 -4 22 -16 49 -36 74 -57 168 -51 223 4 29 34 105 78
198 75 159 80 185 43 238 -21 30 -47 28 -88 -9z"/>
<path d="M430 1181 c-17 -32 -12 -64 25 -160 72 -186 75 -233 20 -342 -14 -27
-21 -49 -15 -49 18 0 91 73 109 109 70 138 46 339 -50 426 -44 39 -73 44 -89
16z"/>
<path d="M12282 1166 c-97 -88 -121 -288 -51 -427 18 -35 91 -109 109 -109 5
0 -5 30 -22 66 -42 90 -41 141 7 269 55 148 60 170 49 202 -14 41 -45 41 -92
-1z"/>
<path d="M327 1052 c-25 -27 -21 -62 16 -138 27 -59 32 -80 32 -144 -1 -62 -6
-85 -31 -137 -17 -35 -27 -63 -23 -63 4 0 29 15 55 33 33 23 58 51 77 88 27
50 29 60 24 139 -10 170 -90 289 -150 222z"/>
<path d="M12391 1046 c-36 -38 -63 -123 -68 -216 -5 -79 -3 -89 24 -139 19
-37 44 -65 77 -88 26 -18 51 -33 55 -33 4 0 -6 28 -23 63 -25 52 -30 75 -31
137 0 64 5 85 33 144 36 77 40 115 14 139 -26 24 -55 21 -81 -7z"/>
<path d="M770 928 c-1 -18 -9 -58 -20 -88 -22 -66 -19 -78 4 -18 18 44 33 138
22 138 -3 0 -6 -15 -6 -32z"/>
<path d="M12025 914 c3 -47 33 -140 41 -131 3 2 -3 20 -11 40 -8 20 -19 60
-25 89 l-9 53 4 -51z"/>
<path d="M254 912 c-24 -16 -32 -47 -23 -92 22 -104 21 -114 -5 -184 -15 -38
-31 -76 -38 -83 -20 -24 0 -26 37 -3 73 45 117 137 117 242 -1 85 -21 128 -62
128 -8 0 -20 -4 -26 -8z"/>
<path d="M12494 912 c-23 -15 -35 -55 -36 -120 0 -105 44 -197 117 -242 37
-23 57 -21 37 3 -7 7 -23 45 -38 83 -26 70 -27 80 -5 184 12 59 -8 100 -49
100 -8 0 -20 -4 -26 -8z"/>
<path d="M136 751 c-10 -11 -21 -46 -26 -83 -9 -75 -27 -121 -64 -165 -32 -38
-22 -41 32 -14 75 38 125 107 138 189 12 73 -39 119 -80 73z"/>
<path d="M12594 745 c-43 -66 26 -204 128 -256 54 -27 64 -24 32 14 -37 44
-55 90 -64 165 -12 95 -59 133 -96 77z"/>
<path d="M1994 529 c-29 -32 -3 -68 66 -92 86 -30 173 -13 245 49 29 24 29 25
5 18 -51 -14 -137 -5 -199 20 -73 31 -92 32 -117 5z"/>
<path d="M10686 524 c-59 -25 -145 -34 -196 -20 -24 7 -24 6 5 -18 72 -62 159
-79 245 -49 69 24 95 60 66 92 -24 27 -48 26 -120 -5z"/>
<path d="M872 535 c2 -3 29 -9 59 -15 30 -5 88 -26 129 -46 65 -32 94 -56 220
-184 80 -81 155 -152 168 -159 37 -19 25 -5 -28 34 -28 20 -84 77 -126 125
-112 131 -215 202 -341 235 -58 15 -90 19 -81 10z"/>
<path d="M1644 514 c-31 -30 -27 -60 16 -114 114 -143 246 -192 368 -135 28
13 52 28 52 32 0 4 -25 9 -55 11 -111 6 -178 45 -252 146 -69 95 -87 103 -129
60z"/>
<path d="M3706 524 c-34 -33 -6 -76 65 -99 66 -22 133 -15 200 21 81 44 79 51
-9 46 -66 -4 -86 -1 -141 22 -75 30 -94 32 -115 10z"/>
<path d="M8975 513 c-51 -22 -71 -25 -137 -21 -88 5 -90 -2 -9 -46 67 -36 134
-43 200 -21 71 23 99 66 65 99 -21 21 -48 19 -119 -11z"/>
<path d="M11088 528 c-9 -7 -37 -41 -61 -74 -74 -101 -141 -140 -252 -146 -30
-2 -55 -7 -55 -11 0 -4 24 -19 53 -32 121 -57 253 -8 367 135 43 54 47 84 16
114 -28 29 -44 32 -68 14z"/>
<path d="M11843 525 c-123 -33 -227 -106 -337 -235 -42 -48 -98 -105 -126
-125 -53 -39 -65 -53 -27 -34 12 7 87 78 167 159 126 128 155 152 220 184 41
20 99 41 129 46 30 6 57 12 59 15 9 9 -32 4 -85 -10z"/>
<path d="M470 523 c0 -5 11 -15 23 -20 20 -9 23 -17 19 -43 -3 -24 -1 -31 8
-25 12 8 44 74 38 81 -10 9 -88 15 -88 7z"/>
<path d="M1247 515 c-45 -44 -10 -114 120 -242 130 -129 216 -176 330 -182 54
-2 87 2 121 15 39 14 43 19 27 25 -11 4 -36 8 -56 8 -64 2 -162 38 -208 77
-23 20 -78 90 -122 155 -43 65 -90 126 -103 134 -38 25 -90 30 -109 10z"/>
<path d="M1812 518 c-24 -24 -14 -65 25 -98 58 -52 118 -74 198 -74 56 0 79 4
115 24 l45 24 -70 8 c-100 12 -131 24 -191 79 -56 50 -96 63 -122 37z"/>
<path d="M2483 515 c-29 -8 -76 -26 -105 -41 -59 -30 -170 -115 -193 -147 -33
-47 -151 -160 -199 -191 -72 -45 -150 -77 -231 -92 -67 -13 -68 -14 -14 -9
142 12 254 77 409 238 160 167 255 224 402 246 50 7 55 9 23 9 -22 0 -64 -6
-92 -13z"/>
<path d="M3352 507 c-29 -31 -28 -56 6 -103 111 -151 258 -209 380 -148 55 27
66 42 31 39 -41 -3 -131 16 -167 34 -43 22 -96 76 -140 142 -44 65 -74 75
-110 36z"/>
<path d="M5418 519 c-10 -5 -18 -20 -18 -33 0 -64 136 -106 233 -72 67 24 147
90 86 71 -44 -14 -129 -6 -192 20 -70 27 -84 29 -109 14z"/>
<path d="M7267 503 c-57 -24 -142 -32 -186 -18 -61 19 19 -47 86 -71 97 -34
233 8 233 72 0 25 -27 45 -57 43 -10 -1 -44 -12 -76 -26z"/>
<path d="M9382 523 c-7 -2 -26 -26 -44 -51 -44 -67 -97 -121 -140 -143 -36
-18 -126 -37 -167 -34 -35 3 -24 -12 31 -39 68 -34 135 -34 205 -2 86 41 203
161 203 211 0 40 -50 73 -88 58z"/>
<path d="M10248 519 c147 -22 242 -79 402 -246 155 -161 267 -226 409 -238 54
-5 53 -4 -14 9 -81 15 -159 47 -231 92 -48 31 -166 144 -199 191 -23 32 -134
117 -192 147 -64 32 -155 56 -203 55 -24 -1 -16 -4 28 -10z"/>
<path d="M10866 481 c-60 -55 -91 -67 -191 -79 l-70 -8 45 -24 c59 -32 163
-34 231 -3 66 30 119 79 119 112 0 68 -60 69 -134 2z"/>
<path d="M11460 512 c-25 -12 -56 -49 -112 -132 -98 -146 -149 -193 -235 -220
-36 -11 -82 -20 -102 -21 -20 0 -45 -4 -56 -8 -16 -6 -12 -11 27 -25 34 -13
67 -17 121 -15 114 6 200 53 330 182 57 56 111 118 120 139 43 93 -4 145 -93
100z"/>
<path d="M12263 523 c-27 -5 -27 -4 -9 -47 20 -48 40 -58 34 -16 -4 26 -1 34
19 43 46 21 21 32 -44 20z"/>
<path d="M2669 504 c110 -30 167 -70 326 -230 135 -136 158 -155 235 -193 47
-23 103 -44 125 -47 35 -4 33 -2 -14 11 -132 38 -206 92 -396 294 -91 97 -238
182 -308 180 -12 0 2 -7 32 -15z"/>
<path d="M2957 505 c-25 -25 -21 -75 11 -126 50 -78 203 -213 289 -256 72 -36
83 -38 168 -38 63 0 99 5 119 16 l29 16 -76 11 c-101 15 -177 45 -219 86 -19
19 -69 86 -111 149 -42 64 -87 123 -100 132 -39 25 -91 30 -110 10z"/>
<path d="M3522 508 c-21 -21 -14 -67 16 -95 81 -77 232 -102 322 -53 l45 24
-70 8 c-100 12 -129 24 -192 79 -57 50 -96 62 -121 37z"/>
<path d="M4195 506 c-27 -7 -59 -18 -70 -25 l-20 -13 20 7 c48 17 87 26 142
34 48 7 51 9 18 9 -22 0 -62 -5 -90 -12z"/>
<path d="M5060 500 c-39 -39 -17 -95 70 -180 62 -61 129 -93 202 -98 48 -4 67
0 113 23 30 14 55 31 55 37 0 5 -7 8 -15 5 -23 -9 -134 12 -175 33 -20 10 -59
44 -86 75 -118 137 -127 142 -164 105z"/>
<path d="M7657 486 c-18 -19 -54 -59 -81 -91 -27 -31 -66 -65 -86 -75 -41 -21
-152 -42 -175 -33 -8 3 -15 0 -15 -5 0 -6 25 -23 55 -37 100 -49 216 -22 315
75 87 85 109 141 70 180 -28 28 -47 25 -83 -14z"/>
<path d="M8533 509 c55 -8 94 -17 142 -34 20 -7 20 -7 0 6 -27 17 -122 39
-165 38 -25 -1 -19 -4 23 -10z"/>
<path d="M9157 471 c-63 -55 -92 -67 -192 -79 l-70 -8 45 -24 c90 -49 241 -24
323 53 29 28 36 74 15 95 -25 25 -64 13 -121 -37z"/>
<path d="M9750 502 c-25 -12 -56 -48 -112 -132 -42 -63 -93 -132 -113 -152
-43 -44 -118 -74 -222 -90 l-76 -11 29 -16 c20 -11 56 -16 119 -16 85 0 96 2
168 38 56 28 102 62 169 125 104 99 148 161 148 208 0 61 -44 79 -110 46z"/>
<path d="M10078 496 c-85 -35 -146 -77 -218 -153 -203 -212 -268 -260 -401
-298 -47 -13 -49 -15 -14 -11 22 3 78 24 125 47 77 38 100 57 235 193 159 160
216 200 326 230 31 9 43 15 29 15 -14 0 -51 -10 -82 -23z"/>
<path d="M330 504 c0 -5 20 -22 44 -38 41 -28 44 -33 52 -90 l9 -61 28 54 c15
30 27 68 27 83 0 22 -6 31 -27 39 -38 15 -133 24 -133 13z"/>
<path d="M1482 498 c-7 -7 -12 -30 -12 -52 0 -151 239 -312 410 -275 28 6 60
19 72 28 22 18 21 18 -38 20 -120 2 -150 21 -270 167 -102 124 -130 144 -162
112z"/>
<path d="M4338 503 c6 -2 18 -2 25 0 6 3 1 5 -13 5 -14 0 -19 -2 -12 -5z"/>
<path d="M4662 498 c-18 -18 -14 -74 8 -118 24 -48 166 -188 238 -236 80 -54
154 -76 237 -71 39 2 86 10 105 19 l35 15 -75 11 c-179 28 -212 50 -330 227
-72 107 -99 140 -125 151 -42 17 -77 18 -93 2z"/>
<path d="M5225 490 c-27 -30 -10 -68 49 -108 99 -66 212 -78 298 -30 l41 23
-67 7 c-95 9 -130 24 -193 79 -62 54 -98 62 -128 29z"/>
<path d="M5968 503 c12 -2 32 -2 45 0 12 2 2 4 -23 4 -25 0 -35 -2 -22 -4z"/>
<path d="M6788 503 c12 -2 32 -2 45 0 12 2 2 4 -23 4 -25 0 -35 -2 -22 -4z"/>
<path d="M7447 461 c-63 -55 -98 -70 -193 -79 l-67 -7 41 -23 c86 -48 199 -36
298 30 59 40 76 78 49 108 -30 33 -66 25 -128 -29z"/>
<path d="M8043 495 c-23 -10 -55 -49 -123 -150 -118 -177 -151 -199 -330 -227
l-75 -11 35 -15 c19 -9 67 -17 105 -19 126 -7 226 43 372 187 89 87 123 140
123 193 0 57 -39 72 -107 42z"/>
<path d="M8438 503 c6 -2 18 -2 25 0 6 3 1 5 -13 5 -14 0 -19 -2 -12 -5z"/>
<path d="M11258 500 c-9 -6 -55 -57 -102 -114 -120 -146 -150 -165 -270 -167
-59 -2 -60 -2 -38 -20 12 -9 44 -22 72 -28 171 -37 410 124 410 275 0 58 -29
79 -72 54z"/>
<path d="M12355 496 c-52 -15 -57 -47 -18 -124 l28 -57 9 61 c8 57 11 62 52
90 24 16 44 32 44 37 0 11 -70 7 -115 -7z"/>
<path d="M3179 479 c-38 -72 63 -219 194 -283 104 -51 232 -54 289 -6 l23 19
-67 1 c-116 0 -153 26 -290 196 -75 92 -125 117 -149 73z"/>
<path d="M4430 476 c108 -45 156 -84 325 -267 54 -58 160 -139 182 -139 4 0
-19 18 -51 39 -33 22 -120 102 -195 179 -116 118 -147 145 -210 176 -40 20
-81 36 -90 36 -9 -1 9 -11 39 -24z"/>
<path d="M5908 493 c6 -2 18 -2 25 0 6 3 1 5 -13 5 -14 0 -19 -2 -12 -5z"/>
<path d="M6090 484 c75 -20 179 -84 251 -154 l59 -58 59 58 c72 70 176 134
251 154 30 8 45 15 33 15 -64 2 -198 -73 -290 -162 l-53 -51 -52 51 c-93 89
-227 164 -291 162 -12 0 3 -7 33 -15z"/>
<path d="M6364 475 c-14 -22 -15 -32 -5 -63 6 -20 18 -46 26 -56 15 -20 15
-20 30 0 8 10 20 36 26 56 10 31 9 41 -5 63 -21 32 -51 32 -72 0z"/>
<path d="M6868 493 c6 -2 18 -2 25 0 6 3 1 5 -13 5 -14 0 -19 -2 -12 -5z"/>
<path d="M8319 464 c-63 -31 -94 -58 -210 -176 -75 -77 -162 -157 -195 -179
-32 -21 -55 -39 -51 -39 22 0 128 81 182 139 169 183 217 222 325 267 30 13
48 23 39 24 -9 0 -50 -16 -90 -36z"/>
<path d="M9550 486 c-14 -8 -50 -45 -80 -83 -133 -166 -173 -193 -288 -193
l-67 -1 23 -19 c12 -10 46 -24 75 -30 164 -34 383 105 412 262 12 66 -20 94
-75 64z"/>
<path d="M763 477 c-18 -7 -38 -18 -45 -24 -10 -10 -2 -13 38 -13 96 0 204
-40 256 -94 11 -11 56 -74 100 -139 46 -69 92 -126 111 -137 36 -22 87 -26
105 -8 18 18 14 67 -9 114 -24 50 -188 211 -255 250 -100 59 -223 79 -301 51z"/>
<path d="M4890 471 c-54 -102 123 -292 298 -320 63 -10 141 1 178 26 l28 18
-79 6 c-44 3 -94 12 -110 21 -35 19 -109 95 -180 187 -63 80 -113 103 -135 62z"/>
<path d="M5789 453 c-62 -30 -96 -58 -209 -173 -142 -144 -184 -176 -290 -222
-36 -15 -59 -28 -51 -28 8 0 53 19 100 41 77 37 99 55 216 173 139 141 197
187 285 223 30 12 48 23 39 23 -9 0 -50 -16 -90 -37z"/>
<path d="M6960 467 c88 -36 146 -82 285 -223 117 -118 139 -136 216 -173 47
-22 92 -41 100 -41 8 0 -15 13 -51 28 -106 46 -148 78 -290 222 -113 115 -147
143 -209 173 -40 21 -81 37 -90 37 -9 0 9 -11 39 -23z"/>
<path d="M7838 472 c-15 -9 -48 -44 -74 -77 -67 -85 -134 -154 -169 -173 -17
-9 -66 -18 -110 -21 l-79 -6 28 -18 c37 -25 115 -36 178 -26 175 28 352 218
298 320 -13 24 -37 24 -72 1z"/>
<path d="M11834 471 c-81 -28 -138 -66 -239 -162 -96 -92 -135 -151 -135 -205
0 -38 16 -54 55 -54 53 0 91 34 173 157 44 65 89 128 100 139 52 54 160 94
256 94 43 0 48 2 36 14 -42 38 -160 47 -246 17z"/>
<path d="M197 473 c-4 -6 16 -25 44 -43 65 -42 78 -64 86 -145 6 -68 6 -68 24
-46 39 48 52 157 22 183 -46 40 -162 73 -176 51z"/>
<path d="M2463 464 c-56 -21 -54 -34 5 -34 92 0 204 -43 253 -97 15 -15 58
-75 97 -133 84 -126 108 -150 159 -157 70 -9 92 40 53 117 -45 88 -213 240
-317 286 -74 33 -188 41 -250 18z"/>
<path d="M10155 471 c-156 -38 -405 -269 -405 -375 0 -39 27 -59 73 -53 51 7
75 31 159 157 39 58 82 118 97 133 49 54 161 97 254 97 26 0 47 4 47 9 0 5
-21 16 -47 25 -48 17 -126 19 -178 7z"/>
<path d="M12506 465 c-64 -23 -91 -47 -94 -88 -4 -45 13 -108 37 -138 18 -22
18 -22 24 46 8 81 21 103 86 145 28 18 48 37 45 41 -8 13 -54 10 -98 -6z"/>
<path d="M4025 429 c-33 -22 -116 -98 -185 -168 -133 -136 -204 -184 -321
-215 -30 -8 -44 -15 -31 -15 34 -1 148 46 212 88 30 20 84 67 120 105 133 143
153 160 266 233 11 6 15 12 9 12 -5 0 -37 -18 -70 -40z"/>
<path d="M4177 455 c-53 -18 -55 -23 -11 -30 145 -22 218 -50 265 -102 15 -15
63 -83 107 -149 64 -96 88 -124 113 -133 46 -16 74 -14 94 9 23 26 14 73 -26
133 -36 54 -188 194 -251 230 -92 53 -212 71 -291 42z"/>
<path d="M8417 451 c-74 -25 -122 -56 -224 -149 -128 -115 -178 -208 -138
-252 20 -23 48 -25 94 -9 25 9 49 37 113 133 44 66 92 134 107 149 48 52 119
80 266 103 l40 6 -30 16 c-47 24 -159 26 -228 3z"/>
<path d="M8714 457 c113 -73 133 -90 266 -233 36 -38 90 -85 120 -105 64 -42
178 -89 212 -88 13 0 -1 7 -31 15 -117 31 -188 79 -326 219 -112 115 -226 206
-252 204 -4 0 0 -6 11 -12z"/>
<path d="M30 451 c-25 -8 -25 -8 7 -15 37 -9 113 -61 142 -98 43 -53 63 -138
51 -211 l-7 -48 23 22 c41 39 67 116 61 183 -6 69 -26 100 -88 138 -47 30
-142 44 -189 29z"/>
<path d="M5885 445 c-22 -8 -41 -15 -42 -15 -2 0 -3 -4 -3 -8 0 -4 19 -9 43
-10 73 -4 147 -25 200 -56 43 -26 67 -54 147 -171 80 -117 102 -142 133 -154
32 -12 42 -12 74 0 31 12 53 37 133 154 80 117 104 145 147 171 53 31 127 52
201 56 23 1 42 5 42 8 0 15 -59 33 -120 37 -122 9 -228 -42 -367 -176 l-73
-69 -72 69 c-40 39 -97 86 -127 106 -100 67 -227 90 -316 58z"/>
<path d="M12642 450 c-42 -10 -107 -53 -128 -85 -9 -13 -18 -50 -21 -83 -6
-65 20 -143 61 -181 l23 -22 -7 48 c-12 73 8 158 51 211 29 37 105 89 142 98
32 7 32 7 7 15 -32 9 -87 9 -128 -1z"/>
<path d="M635 388 l-40 -23 75 -5 c104 -9 143 -32 232 -137 109 -131 133 -153
162 -153 53 0 58 74 11 156 -32 55 -92 107 -167 145 -53 28 -76 33 -148 36
-74 3 -90 0 -125 -19z"/>
<path d="M11960 401 c-49 -15 -131 -62 -171 -98 -99 -89 -131 -233 -53 -233
29 0 53 22 162 153 88 105 128 128 232 137 l75 5 -42 23 c-32 17 -58 22 -110
21 -37 0 -79 -4 -93 -8z"/>
<path d="M2354 386 c-56 -25 -50 -36 18 -36 105 0 147 -27 262 -164 94 -112
125 -136 161 -122 23 8 19 91 -6 143 -26 53 -95 116 -174 156 -50 25 -74 31
-145 34 -59 2 -95 -1 -116 -11z"/>
<path d="M10250 391 c-97 -31 -206 -115 -239 -184 -25 -52 -29 -135 -6 -143
36 -14 67 10 161 121 113 136 145 156 254 164 l75 6 -30 20 c-22 15 -48 20
-110 22 -44 1 -91 -1 -105 -6z"/>
<path d="M4050 368 l-45 -22 82 -6 c60 -5 93 -14 122 -31 39 -24 124 -114 183
-196 35 -47 81 -72 107 -56 28 18 26 86 -6 144 -34 63 -88 110 -173 152 -54
27 -78 32 -145 35 -66 2 -88 -1 -125 -20z"/>
<path d="M8510 367 c-105 -43 -172 -101 -214 -185 -21 -41 -18 -111 5 -125 26
-16 72 9 107 56 59 82 144 172 183 196 29 17 62 26 122 31 l82 6 -45 22 c-63
30 -165 30 -240 -1z"/>
<path d="M5760 358 l-45 -22 75 -6 c41 -4 91 -13 110 -22 38 -17 122 -101 188
-189 68 -90 133 -103 140 -29 8 82 -79 195 -196 252 -52 26 -79 32 -145 35
-69 3 -89 0 -127 -19z"/>
<path d="M6823 365 c-138 -43 -261 -177 -251 -275 7 -74 72 -61 140 29 66 88
150 172 188 189 19 9 69 18 110 22 l75 6 -45 22 c-52 25 -150 29 -217 7z"/>
<path d="M578 331 c-35 -12 -88 -43 -88 -53 0 -4 22 -8 48 -8 113 0 197 -50
273 -161 42 -62 72 -79 108 -60 31 17 37 58 16 97 -25 46 -121 137 -175 164
-47 24 -139 35 -182 21z"/>
<path d="M12079 327 c-20 -8 -52 -24 -72 -36 -47 -29 -145 -136 -153 -166 -13
-51 24 -93 72 -81 14 4 40 30 63 65 76 111 160 161 273 161 26 0 48 4 48 8 0
5 -18 19 -41 31 -50 28 -140 37 -190 18z"/>
<path d="M2265 312 c-22 -11 -49 -27 -60 -36 -19 -14 -17 -15 36 -16 118 0
203 -49 274 -156 55 -82 95 -94 131 -38 17 25 17 28 -5 70 -28 52 -98 120
-164 158 -64 38 -155 45 -212 18z"/>
<path d="M10370 317 c-80 -30 -183 -121 -217 -192 -15 -31 -15 -36 1 -60 36
-55 76 -43 131 39 70 106 133 144 255 155 l75 6 -49 30 c-57 34 -140 43 -196
22z"/>
<path d="M3964 296 c-74 -34 -76 -46 -11 -46 109 0 183 -41 263 -147 60 -80
83 -93 119 -69 57 37 10 137 -105 221 -95 70 -177 82 -266 41z"/>
<path d="M8658 306 c-53 -19 -134 -82 -179 -139 -48 -60 -53 -107 -14 -133 36
-24 59 -11 119 69 80 106 154 147 263 147 65 0 63 12 -11 46 -57 27 -121 30
-178 10z"/>
<path d="M5694 298 c-17 -5 -44 -21 -60 -34 l-29 -23 51 -1 c115 0 193 -45
276 -158 49 -67 78 -81 113 -58 37 25 33 68 -12 127 -94 124 -232 184 -339
147z"/>
<path d="M6970 303 c-75 -26 -150 -82 -203 -152 -45 -59 -49 -102 -12 -127 35
-23 64 -9 113 58 83 113 161 158 276 158 l51 1 -29 23 c-46 38 -143 58 -196
39z"/>
<path d="M464 226 c-23 -7 -51 -20 -63 -28 -21 -15 -18 -16 41 -22 104 -12
136 -24 194 -77 64 -58 103 -65 130 -24 15 23 15 27 0 49 -53 81 -206 133
-302 102z"/>
<path d="M12215 230 c-83 -18 -149 -56 -181 -106 -15 -22 -15 -26 0 -49 27
-41 66 -34 130 24 62 56 69 59 180 75 l81 12 -45 21 c-54 27 -111 35 -165 23z"/>
<path d="M2169 217 c-19 -7 -45 -20 -57 -29 -21 -14 -20 -15 39 -22 95 -10
135 -25 195 -78 76 -66 134 -65 134 3 0 80 -208 164 -311 126z"/>
<path d="M10480 214 c-89 -24 -160 -79 -160 -124 0 -66 59 -68 131 -4 62 55
81 63 182 78 l78 11 -40 23 c-52 30 -122 36 -191 16z"/>
<path d="M3895 211 c-16 -4 -46 -16 -65 -26 l-35 -19 80 -12 c103 -15 120 -22
182 -78 69 -62 133 -62 133 0 0 75 -189 162 -295 135z"/>
<path d="M8792 210 c-90 -19 -182 -87 -182 -134 0 -62 64 -62 133 0 62 56 79
63 182 78 l80 12 -40 21 c-50 26 -116 34 -173 23z"/>
<path d="M5591 199 c-18 -6 -45 -18 -59 -27 l-26 -17 57 -7 c98 -12 134 -27
194 -78 62 -53 99 -63 127 -34 74 74 -159 204 -293 163z"/>
<path d="M7069 196 c-25 -6 -66 -24 -92 -39 -72 -43 -95 -88 -61 -121 28 -29
65 -19 127 34 61 52 96 66 191 77 l58 6 -23 18 c-26 19 -94 39 -131 38 -13 0
-44 -6 -69 -13z"/>
<path d="M362 145 c-35 -11 -122 -61 -122 -70 0 -1 34 0 76 3 66 4 84 1 145
-23 55 -23 76 -27 97 -19 59 21 30 85 -50 109 -62 18 -89 18 -146 0z"/>
<path d="M12288 145 c-76 -25 -103 -89 -46 -109 21 -8 42 -4 97 19 62 24 79
27 147 23 l77 -5 -24 19 c-70 57 -172 78 -251 53z"/>
<path d="M2065 133 c-40 -15 -115 -58 -115 -66 0 -1 35 -1 78 1 66 3 86 0 136
-22 67 -30 98 -33 120 -10 29 29 16 58 -36 85 -57 29 -123 33 -183 12z"/>
<path d="M10600 141 c-88 -29 -121 -69 -84 -105 22 -23 53 -20 120 10 50 22
70 25 136 22 88 -4 89 5 4 47 -56 28 -136 39 -176 26z"/>
<path d="M3793 130 c-31 -7 -118 -54 -127 -68 -2 -4 28 -6 68 -4 60 3 84 0
138 -22 93 -37 128 -32 128 19 0 58 -112 98 -207 75z"/>
<path d="M8877 126 c-69 -25 -97 -72 -65 -104 18 -18 45 -15 116 14 55 22 78
25 138 22 82 -4 83 3 6 45 -61 33 -143 43 -195 23z"/>
<path d="M5480 115 c-25 -8 -60 -27 -79 -42 l-33 -29 74 4 c63 3 85 0 143 -23
78 -31 118 -27 123 14 5 31 -21 57 -76 75 -55 19 -92 19 -152 1z"/>
<path d="M7166 114 c-54 -20 -78 -43 -74 -73 5 -43 43 -48 123 -16 58 23 80
26 143 23 l74 -4 -33 29 c-37 30 -115 57 -163 56 -17 0 -49 -7 -70 -15z"/>
<path d="M1480 114 c0 -11 127 -63 165 -68 l40 -6 -46 14 c-25 7 -71 25 -103
39 -31 14 -56 24 -56 21z"/>
<path d="M11261 93 c-30 -14 -75 -32 -100 -39 l-46 -14 40 6 c39 5 165 58 165
68 0 7 5 9 -59 -21z"/>
<path d="M4988 48 c24 -11 60 -22 80 -24 28 -3 25 -1 -16 11 -29 8 -62 19 -72
25 -10 5 -22 10 -27 9 -4 0 12 -10 35 -21z"/>
<path d="M7818 60 c-9 -6 -40 -17 -70 -25 -40 -12 -44 -14 -16 -11 34 4 134
44 113 45 -5 0 -17 -4 -27 -9z"/>
<path d="M3413 23 c9 -2 25 -2 35 0 9 3 1 5 -18 5 -19 0 -27 -2 -17 -5z"/>
<path d="M5183 23 c9 -2 23 -2 30 0 6 3 -1 5 -18 5 -16 0 -22 -2 -12 -5z"/>
<path d="M7593 23 c9 -2 23 -2 30 0 6 3 -1 5 -18 5 -16 0 -22 -2 -12 -5z"/>
<path d="M9353 23 c9 -2 25 -2 35 0 9 3 1 5 -18 5 -19 0 -27 -2 -17 -5z"/>
<path d="M5128 13 c6 -2 18 -2 25 0 6 3 1 5 -13 5 -14 0 -19 -2 -12 -5z"/>
<path d="M7648 13 c6 -2 18 -2 25 0 6 3 1 5 -13 5 -14 0 -19 -2 -12 -5z"/>
</g>
</svg>
