<?xml version="1.0" standalone="no"?>
<!DOCTYPE svg PUBLIC "-//W3C//DTD SVG 20010904//EN"
 "http://www.w3.org/TR/2001/REC-SVG-20010904/DTD/svg10.dtd">
<svg version="1.0" xmlns="http://www.w3.org/2000/svg"
 width="1280.000000pt" height="1274.000000pt" viewBox="0 0 1280.000000 1274.000000"
 preserveAspectRatio="xMidYMid meet">
<metadata>
Created by potrace 1.15, written by Peter Selinger 2001-2017
</metadata>
<g transform="translate(0.000000,1274.000000) scale(0.100000,-0.100000)"
fill="#000000" stroke="none">
<path d="M6304 12700 c-154 -77 -278 -202 -374 -377 -75 -136 -129 -210 -209
-286 -133 -125 -257 -174 -419 -164 -91 5 -95 5 -140 -24 -82 -52 -169 -72
-285 -67 -174 9 -290 58 -499 214 -166 124 -312 181 -486 191 l-103 6 -53 -55
c-123 -127 -194 -305 -215 -544 -14 -147 -27 -215 -62 -305 -72 -187 -197
-309 -367 -360 -32 -9 -51 -23 -72 -54 -55 -80 -143 -151 -229 -184 -156 -60
-302 -65 -511 -16 -228 54 -438 43 -595 -29 l-71 -33 -23 -69 c-13 -38 -28
-110 -34 -160 -14 -119 6 -252 64 -424 69 -207 82 -321 54 -466 -22 -116 -63
-195 -143 -274 -63 -61 -70 -72 -80 -126 -39 -195 -202 -356 -440 -434 -52
-16 -101 -30 -110 -30 -10 0 -65 -11 -124 -24 -185 -43 -364 -144 -462 -264
-38 -47 -38 -47 -33 -117 13 -167 95 -333 251 -507 153 -172 196 -236 236
-356 47 -142 44 -267 -9 -393 -28 -66 -28 -67 -14 -135 51 -242 -74 -470 -372
-681 -165 -117 -281 -253 -340 -400 -41 -102 -41 -120 2 -192 80 -136 244
-272 410 -341 208 -86 336 -173 418 -282 84 -111 115 -199 115 -321 0 -63 3
-73 35 -117 153 -208 136 -463 -52 -776 -113 -187 -148 -302 -148 -486 l0
-127 30 -31 c17 -18 59 -49 95 -71 142 -84 302 -118 560 -117 125 0 170 -4
234 -21 193 -51 329 -154 399 -301 32 -69 41 -79 89 -105 81 -44 162 -131 203
-217 71 -151 87 -286 60 -503 -20 -159 -16 -270 15 -389 19 -75 73 -192 106
-234 46 -55 305 -68 463 -22 41 11 126 45 190 74 170 79 236 97 371 103 183 9
287 -24 402 -127 45 -40 63 -50 92 -50 175 0 352 -122 464 -320 20 -36 62
-140 92 -231 33 -96 75 -199 101 -244 76 -134 235 -285 300 -285 49 0 146 31
234 74 105 52 196 124 286 227 173 197 291 280 461 325 80 21 201 15 280 -14
l58 -20 57 20 c80 29 201 35 281 14 170 -45 288 -128 461 -325 90 -103 181
-175 286 -227 88 -43 185 -74 234 -74 65 0 224 151 300 285 26 45 68 148 101
244 30 91 72 195 92 231 112 198 289 320 464 320 29 0 47 10 92 50 115 103
219 136 402 127 135 -6 201 -24 371 -103 64 -29 149 -63 190 -74 158 -46 417
-33 463 22 33 42 87 159 106 234 31 119 35 230 15 389 -27 217 -11 352 60 503
41 86 122 173 203 217 48 26 57 36 89 105 70 147 206 250 399 301 64 17 109
21 234 21 258 -1 418 33 560 117 36 22 79 53 95 71 l30 31 0 127 c0 184 -35
299 -148 486 -188 313 -205 568 -52 776 32 44 35 54 35 117 0 122 31 210 115
321 82 109 210 196 418 282 166 69 330 205 410 341 43 72 43 90 2 192 -59 147
-175 283 -340 400 -298 211 -423 439 -372 681 14 68 14 69 -14 135 -53 126
-56 251 -9 393 40 120 83 184 236 356 156 174 238 340 251 507 5 70 5 70 -33
117 -98 120 -277 221 -462 264 -59 13 -114 24 -124 24 -9 0 -58 14 -110 30
-238 78 -401 239 -440 434 -10 54 -17 65 -80 126 -80 79 -121 158 -143 274
-28 145 -15 259 54 466 58 172 78 305 64 424 -6 50 -21 122 -34 160 l-23 69
-71 33 c-157 72 -367 83 -595 29 -209 -49 -355 -44 -511 16 -86 33 -174 104
-229 184 -21 31 -40 45 -72 54 -170 51 -295 173 -367 360 -35 90 -48 158 -62
305 -21 239 -92 417 -215 544 l-53 55 -103 -6 c-174 -10 -320 -67 -486 -191
-209 -156 -325 -205 -499 -214 -116 -5 -203 15 -285 67 -45 29 -49 29 -140 24
-162 -10 -286 39 -419 164 -80 76 -134 150 -209 286 -62 112 -155 227 -238
293 -61 48 -203 124 -232 124 -10 0 -53 -18 -96 -40z m191 -12 c33 -17 81 -46
107 -64 80 -59 190 -185 238 -273 133 -243 238 -359 397 -438 l96 -48 128 -1
c124 -1 130 -2 188 -32 97 -53 138 -63 241 -64 172 0 328 61 514 201 158 119
283 176 436 201 123 19 155 15 202 -27 120 -109 207 -316 223 -533 20 -265 99
-461 233 -581 47 -42 161 -101 218 -113 18 -4 37 -18 47 -36 10 -16 40 -54 68
-84 62 -68 178 -129 289 -152 108 -23 282 -14 420 22 90 24 126 28 245 28 153
1 238 -15 338 -63 50 -25 53 -29 76 -96 20 -56 26 -96 29 -199 5 -151 -4 -202
-63 -381 -50 -147 -65 -226 -65 -335 0 -168 51 -299 158 -406 61 -62 70 -75
81 -129 29 -129 96 -232 204 -312 122 -89 243 -136 460 -177 49 -9 123 -30
165 -47 163 -65 342 -213 342 -284 0 -52 -27 -170 -57 -243 -48 -122 -96 -192
-224 -329 -94 -99 -128 -148 -180 -257 -80 -167 -87 -323 -19 -472 25 -55 28
-69 18 -92 -6 -15 -12 -79 -12 -142 -1 -103 2 -122 26 -178 65 -156 180 -289
348 -402 188 -127 322 -296 366 -464 12 -45 11 -52 -8 -90 -31 -61 -89 -135
-149 -191 -94 -88 -120 -103 -393 -229 -102 -47 -187 -108 -263 -189 -107
-115 -153 -223 -153 -360 0 -66 -2 -72 -50 -144 -68 -102 -85 -162 -85 -298 1
-170 37 -274 184 -522 86 -146 132 -340 116 -488 -6 -62 -11 -72 -43 -102 -52
-48 -203 -119 -302 -143 -67 -16 -119 -20 -251 -20 -261 0 -397 -32 -541 -127
-85 -56 -130 -108 -176 -204 -34 -69 -42 -79 -90 -104 -117 -62 -215 -195
-257 -350 -26 -98 -30 -244 -10 -403 14 -119 15 -157 6 -238 -20 -166 -92
-343 -153 -372 -15 -7 -66 -18 -113 -24 -161 -22 -315 11 -540 115 -140 65
-236 89 -365 89 -169 1 -255 -29 -380 -132 -48 -41 -66 -50 -97 -50 -55 0
-148 -26 -207 -58 -75 -39 -195 -163 -249 -256 -29 -50 -63 -133 -93 -225 -70
-219 -125 -318 -236 -430 -88 -88 -136 -115 -190 -106 -77 13 -204 65 -279
115 -82 54 -145 112 -264 244 -207 232 -445 322 -670 255 l-75 -22 -75 22
c-225 67 -463 -23 -670 -255 -119 -132 -182 -190 -264 -244 -75 -50 -202 -102
-279 -115 -54 -9 -102 18 -190 106 -111 112 -166 211 -236 430 -30 92 -64 175
-93 225 -54 93 -174 217 -249 256 -59 32 -152 58 -207 58 -31 0 -49 9 -97 50
-125 103 -211 133 -380 132 -129 0 -225 -24 -365 -89 -225 -104 -379 -137
-540 -115 -47 6 -98 17 -113 24 -61 29 -133 206 -153 372 -9 81 -8 119 6 238
20 159 16 305 -10 403 -42 155 -140 288 -257 350 -48 25 -56 35 -90 104 -46
96 -91 148 -176 204 -144 95 -280 127 -541 127 -132 0 -184 4 -251 20 -99 24
-250 95 -302 143 -32 30 -37 40 -43 102 -16 148 30 342 116 488 147 248 183
352 184 522 0 136 -17 196 -85 298 -48 72 -50 78 -50 144 0 137 -46 245 -153
360 -76 81 -161 142 -263 189 -273 126 -299 141 -393 229 -60 56 -118 130
-149 191 -19 38 -20 45 -8 90 44 168 178 337 366 464 168 113 283 246 348 402
24 56 27 75 26 178 0 63 -6 127 -12 142 -10 23 -7 37 18 92 68 149 61 305 -19
472 -52 109 -86 158 -180 257 -128 137 -176 207 -224 329 -30 73 -57 191 -57
243 0 71 179 219 342 284 42 17 116 38 165 47 217 41 338 88 460 177 108 80
175 183 204 312 11 54 20 67 81 129 107 107 158 238 158 406 0 109 -15 188
-65 335 -59 179 -68 230 -63 381 3 103 9 143 29 199 23 67 26 71 76 96 100 48
185 64 338 63 119 0 155 -4 245 -28 138 -36 312 -45 420 -22 111 23 227 84
289 152 28 30 58 68 68 84 10 18 29 32 47 36 17 3 63 21 101 39 206 95 325
318 350 655 16 217 103 424 223 533 47 42 79 46 202 27 153 -25 278 -82 436
-201 186 -140 342 -201 514 -201 103 1 144 11 241 64 58 30 64 31 188 32 l128
1 96 48 c160 79 266 197 397 439 79 145 246 298 395 360 46 19 57 17 140 -24z"/>
<path d="M6340 12639 c-96 -52 -94 -54 61 -54 138 0 140 0 117 19 -20 15 -112
66 -120 66 -2 0 -28 -14 -58 -31z"/>
<path d="M6285 12537 c-59 -20 -97 -42 -125 -72 l-25 -27 40 9 c52 10 398 11
450 0 l40 -9 -29 30 c-47 50 -118 75 -221 79 -56 2 -105 -2 -130 -10z"/>
<path d="M6190 12416 c-57 -15 -105 -44 -150 -91 l-35 -37 40 9 c22 4 83 8
136 8 89 0 102 -3 158 -32 l61 -32 61 32 c56 29 69 32 158 32 53 0 114 -4 136
-8 l40 -9 -40 42 c-79 81 -198 115 -302 87 -45 -12 -61 -12 -105 -1 -63 17
-98 17 -158 0z"/>
<path d="M6044 12242 c-52 -18 -134 -76 -134 -93 0 -7 18 -7 48 -2 26 4 85 8
132 8 83 0 87 -1 160 -45 71 -43 79 -45 150 -45 71 0 79 2 150 45 73 44 77 45
160 45 47 0 106 -4 133 -8 30 -5 47 -5 47 2 0 20 -94 82 -148 97 -82 24 -210
16 -284 -18 l-58 -27 -57 27 c-77 35 -221 42 -299 14z"/>
<path d="M5960 12121 c-55 -18 -109 -52 -153 -97 -26 -26 -47 -50 -47 -54 0
-4 30 4 68 16 76 26 148 30 237 10 70 -15 119 -6 136 25 14 26 -2 69 -33 88
-25 16 -172 24 -208 12z"/>
<path d="M6675 12124 c-40 -10 -64 -27 -75 -54 -26 -64 33 -95 135 -74 89 20
161 16 238 -10 37 -12 67 -20 67 -16 0 17 -99 104 -144 127 -39 20 -69 27
-126 29 -41 2 -84 1 -95 -2z"/>
<path d="M3782 12086 c-31 -36 -67 -95 -60 -101 2 -2 28 11 58 29 56 32 120
59 175 71 26 6 27 8 12 16 -9 6 -48 13 -85 16 l-68 6 -32 -37z"/>
<path d="M8862 12110 c-45 -11 -50 -18 -16 -25 54 -12 119 -39 174 -71 30 -18
56 -31 58 -29 6 6 -29 65 -59 100 -28 31 -36 35 -78 34 -25 -1 -61 -5 -79 -9z"/>
<path d="M3899 12027 c-75 -26 -137 -65 -176 -111 -26 -30 -65 -107 -58 -114
1 -2 27 15 56 37 48 36 142 81 170 81 5 0 28 12 51 27 23 15 79 37 125 49 80
20 82 21 56 33 -54 25 -152 24 -224 -2z"/>
<path d="M8725 12044 c-11 -3 -33 -10 -48 -16 -27 -10 -24 -12 56 -32 46 -12
102 -34 125 -49 23 -15 46 -27 51 -27 28 0 122 -45 170 -81 29 -22 55 -38 57
-36 2 2 -8 28 -24 58 -34 66 -109 129 -189 159 -57 22 -158 34 -198 24z"/>
<path d="M4062 11961 c-29 -10 -76 -34 -105 -53 -30 -21 -71 -38 -96 -42 -58
-9 -134 -51 -173 -95 -33 -37 -84 -138 -75 -148 3 -3 21 6 39 20 82 62 211
102 290 91 44 -6 46 -5 74 33 42 59 111 106 195 132 124 40 121 36 45 60 -83
26 -125 26 -194 2z"/>
<path d="M8540 11958 c-72 -23 -75 -19 49 -59 84 -26 153 -73 195 -132 28 -38
30 -39 74 -33 79 11 208 -29 290 -91 18 -14 36 -23 39 -20 9 10 -42 111 -75
148 -39 44 -115 86 -173 95 -26 4 -68 23 -103 45 -64 43 -140 69 -195 68 -20
0 -65 -9 -101 -21z"/>
<path d="M4250 11865 c-72 -21 -151 -69 -205 -126 l-43 -46 -84 -5 c-160 -8
-303 -104 -338 -228 -10 -33 -7 -33 45 6 17 13 61 37 99 55 67 31 69 32 176
25 100 -6 111 -4 162 18 40 18 64 37 84 66 78 114 121 145 254 184 l85 24 -37
16 c-56 24 -135 28 -198 11z"/>
<path d="M8397 11869 c-21 -5 -48 -14 -59 -20 -19 -10 -12 -14 63 -36 132 -38
175 -69 253 -183 20 -29 44 -48 84 -66 51 -22 62 -24 162 -18 107 7 109 6 176
-25 38 -18 82 -42 99 -55 52 -39 55 -39 45 -6 -23 79 -88 146 -189 193 -52 24
-82 32 -149 35 l-84 5 -43 46 c-55 59 -134 106 -210 126 -65 17 -91 17 -148 4z"/>
<path d="M4400 11791 c-42 -13 -104 -48 -132 -74 -20 -19 -28 -36 -28 -60 0
-75 63 -78 164 -8 81 55 155 81 235 81 51 0 54 1 35 14 -61 43 -205 68 -274
47z"/>
<path d="M8206 11780 c-33 -12 -69 -28 -80 -36 -19 -13 -16 -14 35 -14 80 0
154 -26 235 -81 101 -70 164 -67 164 8 0 24 -8 41 -27 60 -83 76 -216 102
-327 63z"/>
<path d="M3750 11501 c-99 -31 -183 -112 -218 -212 -12 -35 -22 -68 -22 -73 0
-5 24 14 53 41 65 62 119 90 205 108 109 23 154 74 107 121 -25 25 -72 31
-125 15z"/>
<path d="M8926 11487 c-48 -48 -4 -99 106 -122 86 -18 140 -46 205 -108 29
-27 53 -46 53 -41 0 5 -10 38 -22 73 -42 118 -148 206 -264 218 -47 5 -55 3
-78 -20z"/>
<path d="M1770 10604 c-58 -19 -93 -41 -107 -67 -14 -29 -31 -137 -20 -137 3
0 19 23 37 50 18 28 60 75 93 105 52 47 57 55 36 54 -13 0 -31 -3 -39 -5z"/>
<path d="M1913 10591 c-74 -25 -130 -67 -180 -135 -49 -66 -76 -145 -71 -208
l3 -43 34 63 c19 35 57 84 85 110 28 26 64 66 80 89 15 23 54 61 85 85 31 23
60 46 66 50 17 15 -49 8 -102 -11z"/>
<path d="M10786 10602 c5 -4 34 -27 65 -50 31 -24 70 -62 85 -85 16 -23 52
-63 80 -89 28 -26 66 -75 85 -110 l34 -63 3 43 c10 138 -114 303 -262 347 -53
16 -106 20 -90 7z"/>
<path d="M11027 10555 c33 -30 76 -78 94 -107 37 -57 46 -50 35 26 -10 68 -36
100 -96 119 -94 30 -100 23 -33 -38z"/>
<path d="M2051 10578 c-60 -23 -129 -85 -159 -144 -11 -21 -43 -56 -72 -78
-76 -58 -115 -121 -130 -204 -8 -44 -9 -79 -4 -96 9 -26 10 -26 53 39 49 76
119 135 188 161 53 19 73 38 73 68 0 61 88 185 174 248 l39 28 -54 -1 c-30 0
-78 -9 -108 -21z"/>
<path d="M10626 10572 c86 -63 174 -187 174 -248 0 -30 20 -49 73 -68 69 -26
139 -85 188 -161 43 -65 44 -65 53 -39 5 17 4 52 -4 96 -15 83 -54 146 -130
204 -29 22 -61 57 -72 78 -49 96 -163 166 -270 166 l-51 0 39 -28z"/>
<path d="M2261 10562 c-88 -33 -195 -154 -227 -256 -15 -48 -20 -53 -77 -80
-77 -36 -169 -126 -202 -198 -19 -41 -25 -69 -25 -123 l0 -70 32 50 c76 122
131 168 238 200 73 21 91 32 133 82 26 32 37 58 47 110 7 37 18 82 26 100 15
38 81 112 147 165 l49 38 -49 -1 c-26 0 -68 -8 -92 -17z"/>
<path d="M2480 10566 c-99 -21 -176 -81 -224 -173 -20 -40 -20 -62 0 -91 18
-27 60 -29 91 -4 12 9 37 44 57 78 42 73 110 137 177 168 l49 23 -31 7 c-40 8
-52 7 -119 -8z"/>
<path d="M10191 10573 c-20 -4 -17 -8 27 -28 70 -32 136 -96 182 -175 40 -69
71 -94 111 -88 30 4 54 46 46 80 -19 75 -124 176 -205 197 -49 13 -131 20
-161 14z"/>
<path d="M10447 10542 c66 -53 132 -127 147 -165 8 -18 19 -63 26 -100 10 -52
21 -78 47 -110 42 -50 60 -61 133 -82 107 -32 162 -78 238 -200 l32 -50 0 70
c0 54 -6 82 -25 123 -33 72 -125 162 -202 198 -57 27 -62 32 -77 80 -47 148
-196 274 -324 274 l-44 0 49 -38z"/>
<path d="M1905 10001 c-49 -30 -102 -93 -126 -146 -25 -56 -36 -163 -22 -215
l9 -35 17 50 c29 83 72 142 146 195 69 51 91 81 91 125 0 45 -62 59 -115 26z"/>
<path d="M10798 10009 c-21 -12 -23 -47 -6 -83 6 -14 42 -48 79 -76 74 -53
117 -112 146 -195 l17 -50 9 35 c14 52 3 159 -22 215 -24 54 -89 128 -133 151
-31 16 -66 18 -90 3z"/>
<path d="M1154 8646 c-63 -29 -127 -86 -159 -140 -28 -49 -51 -151 -41 -189 9
-39 50 -63 81 -49 34 16 51 56 60 137 8 83 31 140 86 212 22 29 36 53 32 52
-4 0 -31 -11 -59 -23z"/>
<path d="M11619 8617 c55 -72 78 -129 86 -212 9 -81 26 -121 60 -137 31 -14
72 10 81 49 10 38 -13 140 -41 189 -33 56 -97 111 -162 140 -29 13 -56 24 -59
24 -2 0 13 -24 35 -53z"/>
<path d="M934 8548 c-97 -65 -146 -174 -148 -329 -1 -95 -1 -95 -39 -139 -70
-82 -116 -217 -103 -306 5 -41 45 -139 52 -131 2 2 10 40 18 84 21 120 45 165
130 245 49 45 76 79 80 98 3 17 9 44 12 60 4 17 -2 69 -11 115 -17 80 -17 88
-1 147 9 35 32 91 50 126 39 72 31 77 -40 30z"/>
<path d="M11826 8518 c18 -35 41 -91 50 -126 16 -59 16 -67 -1 -147 -9 -46
-15 -98 -11 -115 3 -16 9 -43 12 -60 4 -19 31 -53 80 -98 85 -80 109 -125 130
-245 8 -44 16 -82 18 -84 7 -8 47 90 52 131 13 89 -33 224 -103 306 -38 44
-38 44 -39 139 -2 155 -51 264 -148 329 -71 47 -79 42 -40 -30z"/>
<path d="M784 8509 c-105 -51 -171 -147 -182 -263 -3 -39 -13 -71 -29 -95 -60
-88 -66 -208 -16 -310 l26 -54 18 85 c20 103 68 198 120 240 34 27 36 32 28
61 -24 83 -3 207 52 305 16 28 28 52 27 52 -2 -1 -22 -10 -44 -21z"/>
<path d="M11999 8477 c55 -97 76 -221 52 -304 -8 -29 -6 -34 28 -61 52 -41
100 -137 121 -240 l18 -87 26 55 c49 107 42 223 -19 314 -16 24 -25 51 -25 77
0 51 -32 141 -65 185 -26 34 -89 81 -137 102 l-28 12 29 -53z"/>
<path d="M572 8410 c-38 -30 -60 -58 -89 -117 -36 -73 -38 -82 -38 -172 0 -75
4 -105 20 -135 l19 -40 12 81 c6 44 23 106 38 138 14 31 26 66 26 76 0 31 30
111 61 162 36 59 20 62 -49 7z"/>
<path d="M12179 8403 c31 -51 61 -131 61 -162 0 -10 12 -45 26 -76 15 -32 32
-94 38 -138 l12 -81 19 40 c16 30 20 60 20 135 0 90 -2 99 -38 172 -29 59 -51
87 -89 117 -69 55 -85 52 -49 -7z"/>
<path d="M423 8350 c-63 -46 -76 -73 -68 -134 8 -61 30 -118 37 -96 3 8 10 42
17 74 6 33 24 88 40 123 17 34 27 63 22 63 -4 0 -25 -14 -48 -30z"/>
<path d="M12351 8317 c16 -35 34 -90 40 -123 17 -89 20 -93 35 -59 24 55 28
130 9 159 -17 25 -92 86 -106 86 -5 0 5 -29 22 -63z"/>
<path d="M809 7879 c-12 -12 -33 -46 -47 -78 -46 -99 -28 -249 40 -334 l23
-28 0 98 c0 98 0 98 48 187 26 49 47 99 47 111 0 59 -69 86 -111 44z"/>
<path d="M11896 7878 c-24 -35 -20 -57 31 -154 48 -89 48 -89 48 -187 l0 -98
23 28 c68 85 86 235 40 334 -14 32 -35 66 -47 78 -28 28 -75 28 -95 -1z"/>
<path d="M660 6313 c-63 -72 -83 -117 -88 -204 -7 -124 31 -209 95 -209 28 0
53 35 53 75 0 16 -9 59 -20 93 -24 75 -26 170 -5 237 8 27 13 51 11 52 -2 2
-23 -18 -46 -44z"/>
<path d="M12091 6360 c-1 -3 6 -27 14 -54 21 -68 19 -162 -5 -238 -24 -76 -25
-116 -4 -146 18 -26 50 -28 81 -7 55 39 70 223 25 311 -18 36 -111 147 -111
134z"/>
<path d="M511 6153 c-17 -20 -37 -57 -46 -82 -32 -94 -9 -258 48 -341 l24 -34
-18 -53 c-27 -76 -26 -204 3 -280 20 -53 109 -166 121 -153 3 3 -3 37 -13 75
-30 114 -26 184 16 276 31 70 35 87 31 138 -6 66 -14 85 -68 153 -53 67 -64
106 -64 231 0 59 -1 107 -2 107 -1 0 -15 -17 -32 -37z"/>
<path d="M12255 6083 c0 -125 -11 -164 -64 -231 -54 -68 -62 -87 -68 -153 -4
-51 0 -68 31 -138 42 -92 46 -162 16 -276 -10 -38 -16 -72 -13 -75 12 -13 101
100 121 153 29 76 30 204 3 280 l-18 53 24 34 c57 84 80 247 47 342 -8 25 -30
63 -47 83 l-32 37 0 -109z"/>
<path d="M374 6038 c-50 -60 -74 -126 -74 -205 0 -39 5 -84 12 -100 6 -15 12
-75 13 -133 1 -88 5 -113 25 -155 23 -47 111 -145 130 -145 5 0 2 19 -7 43
-11 29 -17 76 -17 152 -1 95 2 116 21 151 l22 40 -34 50 c-46 66 -69 157 -63
256 3 43 4 78 2 78 -1 0 -15 -15 -30 -32z"/>
<path d="M12398 5992 c6 -99 -17 -190 -63 -256 l-34 -50 22 -40 c19 -35 22
-56 21 -151 0 -76 -6 -123 -17 -152 -9 -24 -12 -43 -7 -43 19 0 107 98 130
145 20 42 24 67 25 155 1 58 7 118 13 133 7 16 12 61 12 101 0 61 -5 83 -30
132 -16 33 -40 70 -53 82 l-24 22 5 -78z"/>
<path d="M252 5907 c-67 -71 -87 -235 -43 -348 20 -53 92 -149 111 -149 5 0 0
26 -11 58 -11 31 -22 91 -24 132 -2 41 -8 104 -15 140 -7 42 -8 87 -2 128 5
34 8 62 7 62 -1 0 -11 -10 -23 -23z"/>
<path d="M12532 5868 c6 -41 5 -86 -2 -128 -7 -36 -13 -99 -15 -140 -2 -41
-13 -101 -24 -132 -11 -32 -16 -58 -11 -58 19 0 91 96 111 149 45 114 22 287
-45 350 l-23 21 9 -62z"/>
<path d="M116 5758 c-13 -24 -29 -60 -34 -80 -9 -33 -7 -42 18 -80 24 -38 80
-99 80 -87 0 2 -7 26 -15 54 -9 28 -16 90 -16 142 0 51 -2 93 -4 93 -2 0 -15
-19 -29 -42z"/>
<path d="M12651 5707 c0 -52 -7 -114 -16 -142 -8 -28 -15 -52 -15 -54 0 -12
56 49 80 87 25 38 27 47 18 80 -9 35 -54 122 -63 122 -2 0 -4 -42 -4 -93z"/>
<path d="M673 5496 c-27 -23 -28 -28 -28 -113 0 -77 4 -95 28 -141 30 -56 93
-124 139 -148 31 -16 35 -9 13 20 -37 48 -56 139 -53 253 3 97 1 113 -16 132
-25 27 -48 27 -83 -3z"/>
<path d="M12044 5499 c-17 -19 -19 -35 -16 -132 3 -114 -16 -205 -53 -253 -22
-29 -18 -36 13 -20 46 24 109 92 139 148 24 46 28 64 28 141 0 85 -1 90 -28
113 -35 30 -58 30 -83 3z"/>
<path d="M1158 3988 c-28 -90 -31 -132 -14 -198 36 -138 145 -231 201 -170 27
30 12 74 -51 149 -67 78 -94 135 -101 214 -3 31 -9 57 -13 57 -3 0 -14 -24
-22 -52z"/>
<path d="M11607 3983 c-7 -79 -34 -136 -101 -214 -31 -37 -59 -80 -62 -98 -13
-63 55 -94 110 -50 70 55 124 188 111 272 -9 56 -37 147 -45 147 -4 0 -10 -26
-13 -57z"/>
<path d="M1080 3765 c-26 -128 56 -302 180 -380 35 -22 37 -27 42 -88 6 -75
48 -170 103 -234 34 -40 111 -85 168 -97 26 -6 26 -4 -21 54 -80 99 -102 154
-102 256 0 136 -38 204 -146 257 -82 41 -151 132 -184 245 -7 23 -17 42 -21
42 -4 0 -13 -25 -19 -55z"/>
<path d="M11680 3778 c-33 -113 -102 -204 -184 -245 -68 -34 -93 -58 -122
-119 -20 -42 -24 -67 -24 -138 0 -102 -22 -157 -102 -256 -47 -58 -47 -60 -21
-54 57 12 134 57 168 97 55 64 97 159 103 234 5 61 7 66 42 88 124 78 206 252
180 380 -6 30 -15 55 -19 55 -4 0 -14 -19 -21 -42z"/>
<path d="M1009 3625 c-7 -16 -13 -66 -13 -110 -1 -90 16 -134 83 -215 21 -25
46 -68 55 -97 39 -118 121 -189 250 -218 l29 -6 -32 36 c-75 86 -121 191 -121
279 0 50 -1 51 -45 75 -68 36 -133 121 -170 224 l-23 62 -13 -30z"/>
<path d="M11760 3607 c-29 -98 -104 -201 -175 -238 -44 -24 -45 -25 -45 -75 0
-88 -46 -193 -121 -279 l-32 -36 29 6 c129 29 211 100 250 218 9 29 34 72 55
97 49 60 79 121 86 179 5 47 -12 157 -26 165 -5 3 -14 -14 -21 -37z"/>
<path d="M946 3448 c-12 -48 -6 -148 14 -200 27 -71 85 -146 144 -186 44 -29
105 -54 115 -46 2 2 -17 26 -43 54 -26 28 -61 79 -77 113 -17 34 -45 84 -64
110 -19 27 -42 74 -52 105 -21 70 -28 80 -37 50z"/>
<path d="M11837 3460 c-3 -8 -13 -39 -22 -68 -9 -29 -32 -74 -50 -100 -19 -26
-47 -75 -64 -109 -16 -34 -51 -85 -77 -113 -26 -28 -45 -52 -43 -54 10 -8 71
17 115 46 100 68 165 188 163 306 0 71 -12 120 -22 92z"/>
<path d="M885 3257 c-9 -61 -1 -114 22 -139 19 -21 104 -68 123 -68 6 0 -7 24
-29 53 -22 29 -56 86 -74 127 l-35 75 -7 -48z"/>
<path d="M11876 3235 c-16 -37 -49 -94 -73 -126 -23 -32 -38 -59 -33 -59 19 0
105 48 124 69 22 24 32 101 19 150 l-9 34 -28 -68z"/>
<path d="M1506 3258 c-21 -30 -20 -56 4 -121 40 -106 126 -177 247 -202 37 -8
69 -13 70 -11 2 2 -15 16 -39 32 -64 45 -113 114 -143 204 -28 84 -58 120
-101 120 -12 0 -30 -10 -38 -22z"/>
<path d="M11207 3260 c-17 -13 -34 -47 -52 -100 -30 -90 -79 -159 -143 -204
-24 -16 -41 -30 -39 -32 1 -2 33 3 70 11 121 25 207 96 247 202 24 65 25 91 4
121 -19 27 -53 28 -87 2z"/>
<path d="M2555 2061 c14 -137 75 -230 188 -285 60 -30 92 -30 121 0 40 39 3
91 -97 137 -90 42 -125 72 -177 150 l-42 62 7 -64z"/>
<path d="M10223 2083 c-44 -78 -92 -122 -179 -164 -112 -54 -149 -103 -108
-143 29 -30 61 -30 121 0 112 54 173 147 189 283 3 33 5 61 2 61 -2 0 -14 -17
-25 -37z"/>
<path d="M2572 1843 c19 -143 152 -260 338 -297 17 -4 33 -20 49 -51 30 -57
124 -145 188 -176 33 -16 71 -25 120 -27 109 -6 120 3 48 39 -119 60 -159 99
-209 203 -28 59 -54 99 -68 107 -13 6 -33 20 -44 31 -15 14 -46 21 -108 28
-110 11 -159 35 -249 119 l-70 66 5 -42z"/>
<path d="M10159 1816 c-85 -81 -135 -105 -245 -116 -62 -7 -93 -14 -108 -28
-11 -11 -31 -25 -44 -31 -14 -8 -40 -48 -68 -107 -50 -104 -90 -143 -209 -203
-72 -36 -61 -45 48 -39 49 2 87 11 120 27 62 30 151 112 184 170 32 54 40 61
73 61 37 1 135 43 183 81 79 60 145 171 135 228 -2 16 -14 9 -69 -43z"/>
<path d="M2574 1645 c14 -110 79 -195 186 -243 33 -15 72 -45 98 -73 64 -71
138 -104 233 -103 105 1 114 10 41 46 -84 42 -162 114 -194 181 -26 52 -29 55
-75 61 -73 9 -167 59 -235 123 l-61 58 7 -50z"/>
<path d="M10175 1640 c-59 -60 -166 -117 -236 -126 -48 -6 -50 -8 -77 -61 -32
-67 -110 -139 -194 -181 -73 -36 -64 -45 41 -46 95 -1 169 32 233 103 25 28
64 57 93 70 68 30 112 66 146 119 27 43 55 138 48 161 -2 6 -27 -11 -54 -39z"/>
<path d="M3190 1563 c-14 -10 -20 -26 -20 -49 0 -30 9 -44 55 -89 89 -87 203
-115 330 -81 49 13 49 13 20 21 -116 28 -161 53 -242 138 -66 69 -106 86 -143
60z"/>
<path d="M9557 1572 c-18 -2 -49 -25 -90 -69 -81 -85 -126 -110 -242 -138 -29
-8 -29 -8 20 -21 127 -34 241 -6 331 82 50 48 55 57 52 90 -3 42 -28 62 -71
56z"/>
<path d="M2580 1491 c0 -11 10 -46 22 -78 51 -136 237 -250 373 -227 l39 6
-70 34 c-39 18 -90 51 -115 72 -24 21 -65 51 -91 66 -26 15 -72 54 -103 87
-42 46 -55 55 -55 40z"/>
<path d="M10162 1449 c-29 -32 -74 -70 -100 -85 -26 -15 -67 -45 -91 -66 -25
-21 -76 -54 -115 -72 l-70 -34 39 -6 c137 -23 322 91 374 228 34 92 24 102
-37 35z"/>
<path d="M2597 1296 c3 -12 17 -47 32 -77 30 -60 43 -67 141 -68 l65 -1 -70
39 c-38 22 -90 60 -115 85 -50 52 -59 56 -53 22z"/>
<path d="M10150 1274 c-25 -25 -76 -63 -115 -85 l-70 -39 65 1 c98 1 111 8
141 68 28 56 41 101 30 101 -4 0 -27 -21 -51 -46z"/>
<path d="M4597 902 c9 -35 79 -127 121 -159 52 -39 127 -63 199 -63 44 0 58 5
79 25 33 33 28 63 -15 92 -29 19 -47 23 -117 23 -94 0 -153 18 -226 68 -35 24
-45 28 -41 14z"/>
<path d="M8165 890 c-67 -49 -135 -70 -229 -70 -70 0 -88 -4 -117 -23 -43 -29
-48 -59 -15 -92 21 -20 35 -25 79 -25 117 0 212 51 279 150 29 44 53 92 45 90
-1 -1 -20 -14 -42 -30z"/>
<path d="M4714 683 c23 -46 101 -110 165 -134 44 -17 77 -22 151 -22 52 0 106
4 119 10 21 8 31 5 66 -21 81 -62 139 -81 250 -81 92 0 104 2 153 29 28 16 52
33 52 38 0 4 -31 8 -68 8 -77 0 -175 22 -207 48 -12 9 -50 40 -83 69 -55 46
-67 52 -124 58 -54 6 -75 3 -141 -20 -63 -22 -88 -26 -130 -21 -45 6 -142 35
-201 61 -17 8 -17 6 -2 -22z"/>
<path d="M8030 684 c-30 -12 -86 -28 -123 -35 -66 -12 -73 -11 -152 15 -72 24
-93 27 -145 21 -55 -6 -68 -13 -122 -59 -33 -28 -71 -59 -83 -68 -32 -26 -130
-48 -207 -48 -37 0 -68 -4 -68 -8 0 -5 24 -22 53 -38 48 -27 60 -29 152 -29
111 0 169 19 250 81 35 26 45 29 66 21 13 -6 67 -10 119 -10 115 0 184 23 254
84 43 38 87 100 69 98 -5 -1 -33 -12 -63 -25z"/>
<path d="M5410 680 c-24 -24 -25 -32 -5 -69 22 -43 103 -75 195 -75 84 -1 151
24 225 84 l40 32 -40 -9 c-22 -4 -74 -8 -115 -7 -61 1 -88 7 -147 32 -83 37
-125 40 -153 12z"/>
<path d="M7235 668 c-57 -26 -84 -31 -145 -32 -41 -1 -93 3 -115 7 l-40 9 40
-32 c74 -60 141 -85 225 -84 92 0 173 32 195 75 20 37 19 45 -5 69 -28 28 -73
25 -155 -12z"/>
<path d="M4780 533 c0 -15 35 -64 72 -100 59 -58 125 -85 213 -88 48 -2 85
-10 120 -26 75 -35 201 -34 271 3 87 46 86 54 -8 61 -101 6 -183 36 -241 87
l-41 37 -44 -15 c-65 -22 -200 -12 -279 20 -35 14 -63 24 -63 21z"/>
<path d="M7955 511 c-77 -31 -212 -41 -277 -19 l-44 15 -41 -37 c-58 -51 -140
-81 -241 -87 -94 -7 -95 -15 -8 -61 70 -37 196 -38 271 -3 35 16 72 24 120 26
88 3 154 30 213 88 39 37 79 95 70 101 -2 1 -30 -9 -63 -23z"/>
<path d="M4870 358 c0 -7 24 -35 53 -64 73 -70 144 -97 257 -98 75 -1 92 3
145 28 l60 30 -85 6 c-47 4 -110 14 -140 23 -30 9 -83 20 -118 26 -35 5 -87
21 -117 35 -33 15 -55 20 -55 14z"/>
<path d="M7873 343 c-29 -13 -81 -29 -115 -34 -35 -6 -88 -17 -118 -26 -30 -9
-93 -19 -140 -23 l-85 -6 60 -30 c53 -25 70 -29 145 -28 104 1 177 26 244 85
42 37 73 77 64 83 -2 2 -27 -8 -55 -21z"/>
<path d="M4965 186 c10 -15 39 -43 64 -63 52 -39 77 -39 166 1 l50 23 -77 7
c-67 6 -127 21 -202 52 -18 7 -18 6 -1 -20z"/>
<path d="M7775 185 c-33 -13 -96 -27 -140 -31 l-80 -7 50 -23 c89 -40 114 -40
166 -1 43 33 89 88 72 86 -5 -1 -35 -12 -68 -24z"/>
<path d="M6083 12629 c-78 -36 -138 -42 -244 -23 -83 14 -100 15 -125 3 -32
-16 -43 -54 -24 -88 16 -30 110 -55 178 -47 76 9 132 36 192 92 42 39 81 87
68 83 -2 0 -22 -9 -45 -20z"/>
<path d="M6679 12632 c18 -33 112 -113 155 -132 65 -29 143 -35 209 -16 61 18
80 39 75 84 -2 18 -12 31 -32 41 -25 12 -42 11 -125 -3 -106 -19 -165 -13
-247 23 -40 18 -43 18 -35 3z"/>
<path d="M5480 12537 c-13 -7 -29 -25 -35 -40 -14 -41 10 -76 75 -109 145 -74
333 -55 427 42 18 19 32 35 30 36 -1 2 -20 -1 -42 -6 -22 -5 -81 -10 -130 -10
-74 0 -98 4 -130 22 -161 86 -156 85 -195 65z"/>
<path d="M7220 12522 c-30 -16 -73 -39 -95 -50 -32 -18 -56 -22 -130 -22 -49
0 -108 5 -130 10 -22 5 -41 8 -42 6 -9 -9 71 -73 117 -95 48 -22 68 -26 150
-25 73 1 108 6 152 23 103 40 143 99 101 149 -30 35 -62 36 -123 4z"/>
<path d="M5265 12498 c-56 -30 -61 -89 -12 -144 45 -53 165 -128 243 -154 84
-28 187 -24 252 9 44 23 122 87 122 101 0 5 -17 3 -37 -2 -56 -16 -200 -13
-251 6 -53 19 -121 66 -194 133 -32 29 -62 53 -67 53 -5 0 -15 2 -23 5 -7 2
-22 0 -33 -7z"/>
<path d="M7475 12496 c-16 -8 -43 -28 -60 -46 -44 -47 -146 -118 -196 -136
-52 -19 -196 -23 -251 -6 -21 5 -38 7 -38 2 0 -14 78 -78 122 -101 65 -33 168
-37 252 -9 78 26 198 101 244 154 47 54 44 114 -9 141 -33 18 -27 18 -64 1z"/>
<path d="M4895 12420 c-29 -11 -49 -38 -69 -90 -31 -80 -84 -166 -127 -204
-46 -42 -146 -93 -199 -102 -65 -10 -67 -15 -15 -36 108 -45 233 -23 332 58
78 64 183 233 183 296 0 50 -61 96 -105 78z"/>
<path d="M7854 12420 c-29 -11 -54 -49 -54 -80 0 -61 106 -231 183 -294 99
-81 224 -103 332 -58 52 21 50 26 -15 36 -56 9 -155 61 -204 106 -30 28 -60
72 -90 133 -25 51 -46 97 -46 103 0 15 -41 51 -65 57 -11 3 -30 2 -41 -3z"/>
<path d="M5081 12397 c-11 -13 -36 -56 -55 -98 -52 -113 -114 -220 -150 -257
-40 -44 -110 -79 -199 -101 l-72 -18 60 -18 c52 -16 69 -17 129 -6 101 17 188
64 272 146 39 39 76 78 80 87 8 15 16 13 79 -18 146 -72 304 -81 420 -24 60
29 134 92 91 76 -11 -4 -52 -12 -92 -18 -138 -22 -209 9 -414 180 -52 43 -102
81 -111 85 -10 3 -25 -3 -38 -16z"/>
<path d="M7680 12412 c-8 -3 -58 -41 -110 -84 -205 -171 -276 -202 -414 -180
-40 6 -81 14 -92 18 -43 16 31 -47 91 -76 116 -57 274 -48 420 24 63 31 71 33
79 18 4 -9 41 -48 80 -87 84 -82 171 -129 272 -146 60 -11 77 -10 129 6 l60
18 -72 18 c-89 22 -159 57 -199 101 -35 37 -103 155 -154 265 -35 77 -66 114
-90 105z"/>
<path d="M4638 12343 c-14 -16 -39 -49 -57 -75 -49 -73 -126 -119 -249 -148
-30 -7 -50 -16 -45 -21 4 -4 36 -15 71 -24 75 -20 145 -9 233 36 139 69 218
190 161 242 -30 27 -84 22 -114 -10z"/>
<path d="M8047 12352 c-70 -78 92 -244 275 -281 48 -10 68 -10 120 4 35 9 67
20 71 24 5 5 -15 14 -45 21 -123 29 -200 75 -249 148 -56 82 -79 102 -119 102
-23 0 -43 -7 -53 -18z"/>
<path d="M4351 12290 c-81 -55 -123 -70 -221 -79 l-65 -6 65 -30 c84 -38 198
-42 271 -9 71 33 119 80 119 118 0 75 -64 77 -169 6z"/>
<path d="M8292 12328 c-7 -7 -12 -26 -12 -44 0 -38 48 -85 119 -118 73 -33
187 -29 271 9 l65 30 -65 6 c-98 9 -140 24 -221 79 -76 52 -130 65 -157 38z"/>
<path d="M5149 12064 c-38 -71 -179 -161 -314 -200 -56 -16 -58 -17 -35 -27
14 -6 61 -10 105 -10 91 0 162 22 246 79 l51 34 66 -11 c77 -14 172 -7 233 17
43 17 133 73 127 79 -2 2 -42 -2 -90 -7 -116 -14 -218 0 -303 41 -34 17 -65
31 -67 31 -3 0 -11 -12 -19 -26z"/>
<path d="M7558 12058 c-77 -40 -181 -54 -296 -40 -48 5 -88 9 -90 7 -6 -6 84
-62 127 -79 61 -24 156 -31 233 -17 l66 11 51 -34 c84 -57 155 -79 246 -79 44
0 91 4 105 10 23 10 21 11 -35 27 -135 39 -276 129 -314 200 -17 31 -21 31
-93 -6z"/>
<path d="M3514 11931 c-62 -57 -102 -77 -201 -101 -107 -25 -154 -80 -105
-122 30 -27 60 -30 118 -13 121 35 202 116 234 234 6 23 10 44 8 46 -2 2 -26
-18 -54 -44z"/>
<path d="M9235 11950 c26 -126 113 -218 239 -255 58 -17 88 -14 119 13 48 42
1 97 -106 122 -100 24 -138 44 -204 104 l-56 50 8 -34z"/>
<path d="M3470 11739 c-36 -30 -130 -76 -182 -89 -32 -8 -66 -9 -120 -1 -111
15 -158 -6 -158 -72 0 -108 261 -93 403 23 37 31 79 94 92 138 8 27 -2 28 -35
1z"/>
<path d="M9295 11738 c34 -113 149 -201 295 -228 113 -21 200 9 200 67 0 66
-47 87 -158 72 -104 -15 -201 13 -299 87 -39 30 -46 30 -38 2z"/>
<path d="M3440 11558 c-14 -12 -59 -37 -100 -57 -69 -33 -82 -36 -160 -35 -68
0 -105 7 -184 33 -112 37 -144 33 -167 -21 -11 -27 -10 -36 7 -67 16 -31 30
-40 89 -60 58 -20 91 -24 190 -25 110 -1 125 1 176 25 71 33 125 87 156 156
29 63 27 79 -7 51z"/>
<path d="M9330 11568 c0 -29 50 -117 85 -153 21 -21 63 -49 94 -64 51 -24 66
-26 176 -25 99 1 132 5 190 25 59 20 73 29 89 60 17 31 18 40 7 67 -23 54 -55
58 -167 21 -79 -26 -116 -33 -184 -33 -76 -1 -92 3 -155 32 -38 18 -84 44
-102 58 -21 16 -33 20 -33 12z"/>
<path d="M3397 11383 c-29 -32 -121 -82 -180 -97 -52 -13 -68 -14 -140 -1 -45
8 -129 28 -187 45 -119 34 -165 38 -174 14 -3 -9 -6 -46 -6 -82 0 -86 -18
-276 -30 -323 -15 -56 -66 -123 -128 -170 -83 -62 -83 -62 -29 -55 59 7 124
35 172 73 77 60 156 191 180 297 l11 49 105 2 c205 5 368 94 419 229 13 35 8
42 -13 19z"/>
<path d="M9380 11396 c0 -3 5 -17 11 -33 20 -54 62 -104 121 -143 87 -58 171
-82 297 -85 l105 -2 11 -49 c24 -106 103 -237 180 -297 48 -38 113 -66 172
-73 54 -7 54 -7 -29 55 -62 47 -113 114 -128 170 -12 47 -30 237 -30 323 0 36
-3 73 -6 82 -9 24 -55 20 -174 -14 -58 -17 -142 -37 -187 -45 -116 -20 -193 0
-297 80 -25 19 -46 33 -46 31z"/>
<path d="M2539 11281 c-23 -18 -24 -28 -30 -158 -4 -120 -8 -145 -31 -195 -28
-61 -90 -134 -153 -181 l-40 -29 71 4 c151 10 259 115 298 290 25 110 29 191
13 231 -25 58 -83 75 -128 38z"/>
<path d="M10163 11285 c-46 -32 -51 -119 -17 -273 39 -174 147 -280 298 -290
l71 -4 -40 29 c-63 47 -125 120 -153 181 -23 50 -27 75 -31 195 -6 130 -7 140
-30 158 -28 23 -69 25 -98 4z"/>
<path d="M3310 11185 c-115 -72 -250 -110 -342 -96 l-46 8 -11 -56 c-16 -82
-63 -155 -158 -250 l-85 -84 42 7 c95 15 213 102 272 202 28 47 36 53 83 63
121 27 230 102 278 190 16 28 27 51 25 51 -2 0 -28 -16 -58 -35z"/>
<path d="M9455 11171 c50 -90 158 -164 280 -192 47 -10 55 -16 83 -63 59 -100
177 -187 272 -202 l42 -7 -85 84 c-95 95 -142 168 -158 250 l-11 56 -46 -8
c-104 -16 -235 26 -381 120 l-25 16 29 -54z"/>
<path d="M2383 11160 c-34 -14 -51 -48 -68 -134 -19 -103 -58 -160 -170 -249
l-50 -40 62 6 c82 7 143 39 208 109 63 68 103 145 112 215 5 46 3 54 -20 77
-28 28 -39 30 -74 16z"/>
<path d="M10343 11144 c-23 -23 -25 -31 -20 -77 9 -70 49 -147 112 -215 65
-70 126 -102 208 -109 l62 -6 -50 40 c-112 89 -151 146 -170 249 -17 88 -34
120 -71 134 -36 14 -42 13 -71 -16z"/>
<path d="M2162 11028 c-13 -7 -41 -42 -63 -79 -48 -81 -112 -142 -180 -174
l-51 -23 41 -7 c48 -8 141 10 194 37 71 36 157 143 157 195 0 51 -47 75 -98
51z"/>
<path d="M10556 11018 c-21 -30 -20 -51 4 -99 26 -50 88 -112 137 -137 53 -27
146 -45 194 -37 l41 7 -51 23 c-68 32 -132 93 -179 174 -54 89 -113 117 -146
69z"/>
<path d="M1486 10299 c-26 -74 -57 -120 -111 -165 -99 -82 -115 -100 -121
-130 -8 -40 16 -64 61 -64 64 0 169 107 195 198 11 40 12 153 2 190 -6 20 -10
16 -26 -29z"/>
<path d="M11287 10320 c-10 -48 -8 -140 3 -182 26 -91 131 -198 195 -198 45 0
69 24 61 64 -6 30 -22 48 -121 130 -54 45 -84 89 -112 165 l-20 54 -6 -33z"/>
<path d="M1497 10051 c-59 -94 -123 -145 -223 -177 -92 -29 -124 -56 -124
-104 0 -38 33 -65 79 -64 85 3 238 119 286 218 27 58 42 145 28 170 -8 14 -16
7 -46 -43z"/>
<path d="M11254 10084 c-9 -36 12 -130 40 -178 55 -94 199 -198 277 -200 46
-1 79 26 79 64 0 48 -32 75 -124 104 -100 32 -164 83 -222 177 -20 32 -38 59
-40 59 -2 0 -7 -12 -10 -26z"/>
<path d="M1551 9887 c-33 -56 -107 -134 -156 -162 -49 -29 -136 -51 -232 -59
-89 -8 -100 -12 -118 -47 -21 -40 -19 -57 14 -90 35 -34 75 -37 185 -14 149
31 273 117 316 218 24 54 39 180 24 190 -5 3 -20 -13 -33 -36z"/>
<path d="M11214 9916 c-11 -30 3 -130 26 -184 43 -100 167 -186 316 -217 110
-23 150 -20 185 14 33 33 35 50 14 90 -18 35 -29 39 -118 47 -83 7 -178 29
-220 51 -47 24 -117 94 -158 157 -30 45 -40 55 -45 42z"/>
<path d="M1572 9686 c-45 -79 -111 -140 -176 -165 -30 -11 -116 -30 -193 -42
-202 -32 -213 -35 -213 -64 0 -14 17 -69 39 -122 71 -179 93 -262 88 -325 -5
-58 -52 -174 -85 -212 -16 -18 -16 -18 8 -11 39 11 92 57 128 110 62 92 88
234 69 383 -7 51 -5 62 6 62 8 0 51 18 95 40 170 85 278 228 270 356 l-3 49
-33 -59z"/>
<path d="M11192 9678 c6 -86 39 -150 117 -229 47 -47 90 -77 150 -107 46 -23
90 -42 98 -42 11 0 13 -11 6 -62 -19 -149 7 -291 69 -383 36 -53 89 -99 128
-110 24 -7 24 -7 8 11 -33 38 -80 154 -85 212 -5 63 17 146 88 325 22 53 39
108 39 122 0 29 -11 32 -213 64 -77 12 -163 31 -193 42 -65 24 -131 86 -174
163 -18 31 -34 56 -37 56 -3 0 -3 -28 -1 -62z"/>
<path d="M1585 9499 c-72 -109 -192 -204 -282 -223 -30 -7 -31 -9 -22 -34 15
-39 12 -169 -5 -234 -9 -32 -29 -88 -46 -124 -17 -37 -29 -69 -27 -70 7 -7 86
57 111 91 42 55 74 133 87 212 11 66 15 75 48 100 100 75 170 186 179 285 2
32 3 58 1 58 -2 0 -22 -28 -44 -61z"/>
<path d="M11173 9504 c8 -101 76 -211 178 -287 33 -25 37 -34 48 -100 13 -79
45 -157 87 -212 25 -34 104 -98 111 -91 2 1 -10 33 -27 70 -17 36 -37 92 -46
124 -17 65 -20 195 -5 234 9 25 8 27 -22 34 -90 19 -197 103 -279 218 l-50 71
5 -61z"/>
<path d="M880 9317 c-33 -17 -48 -59 -33 -95 98 -235 105 -268 79 -371 -9 -36
-30 -91 -46 -123 -16 -32 -27 -58 -24 -58 14 0 88 44 119 72 39 34 78 102 90
157 29 134 -33 379 -105 416 -35 18 -48 18 -80 2z"/>
<path d="M11838 9315 c-70 -39 -131 -285 -103 -416 12 -55 51 -123 90 -157 31
-28 105 -72 119 -72 3 0 -8 26 -24 58 -34 68 -60 160 -60 215 0 44 38 164 75
237 14 27 25 60 25 74 0 55 -69 90 -122 61z"/>
<path d="M760 9110 c-29 -29 -33 -61 -16 -130 29 -111 14 -204 -49 -318 -14
-24 -25 -46 -25 -48 0 -11 64 23 98 52 98 83 148 263 112 396 -18 64 -80 88
-120 48z"/>
<path d="M11953 9115 c-28 -20 -43 -73 -43 -156 0 -117 46 -229 122 -293 34
-29 98 -63 98 -52 0 2 -11 24 -25 48 -63 114 -78 207 -49 318 17 69 13 101
-16 130 -24 24 -58 26 -87 5z"/>
<path d="M615 8905 c-17 -19 -25 -43 -30 -88 -11 -104 -32 -162 -84 -231 l-49
-64 40 14 c61 21 102 50 152 105 51 57 76 121 76 196 0 86 -55 121 -105 68z"/>
<path d="M12100 8910 c-25 -25 -27 -106 -4 -173 28 -82 119 -169 212 -201 l40
-14 -49 64 c-52 69 -73 127 -84 231 -11 97 -66 142 -115 93z"/>
<path d="M285 7915 c0 -91 -1 -95 -48 -187 -51 -100 -55 -122 -31 -156 34 -49
105 -10 144 80 43 99 24 249 -43 330 l-22 27 0 -94z"/>
<path d="M12487 7973 c-64 -93 -79 -223 -37 -321 39 -90 110 -129 144 -80 24
34 20 56 -31 156 -47 92 -48 95 -48 188 0 52 -1 94 -1 94 -1 0 -13 -17 -27
-37z"/>
<path d="M410 7810 c-26 -171 -59 -253 -122 -308 -85 -74 -98 -92 -98 -132 0
-29 6 -43 22 -54 37 -26 71 -19 120 24 92 80 154 254 128 357 -10 42 -48 127
-50 113z"/>
<path d="M12362 7763 c-30 -70 -35 -112 -22 -184 23 -127 132 -279 199 -279
45 0 71 26 71 70 0 40 -13 58 -98 132 -52 46 -89 123 -107 224 -7 41 -15 77
-18 80 -2 3 -13 -17 -25 -43z"/>
<path d="M511 7591 c-12 -75 -47 -165 -80 -207 -29 -37 -107 -96 -184 -138
-37 -21 -72 -46 -77 -56 -33 -61 13 -126 81 -117 20 3 62 21 93 41 124 79 204
178 233 287 16 62 16 70 0 134 -9 37 -25 81 -35 97 l-19 29 -12 -70z"/>
<path d="M12252 7618 c-13 -25 -28 -73 -34 -105 -15 -82 13 -174 77 -255 74
-95 207 -188 267 -188 39 0 78 36 78 71 0 47 -15 64 -87 105 -77 42 -155 101
-184 138 -33 42 -62 117 -79 201 l-16 80 -22 -47z"/>
<path d="M613 7421 c-15 -99 -52 -180 -103 -224 -41 -35 -129 -96 -247 -171
-52 -32 -73 -52 -73 -66 0 -13 48 -68 128 -149 75 -76 139 -150 157 -182 28
-51 30 -60 30 -167 l0 -114 26 32 c56 67 74 197 44 315 -19 74 -57 158 -91
202 l-25 34 63 68 c69 75 122 170 139 253 15 67 7 164 -18 211 l-19 38 -11
-80z"/>
<path d="M12156 7463 c-62 -128 -11 -320 122 -464 l63 -68 -25 -34 c-34 -44
-72 -128 -91 -202 -30 -118 -12 -248 44 -315 l26 -32 0 114 c0 107 2 116 30
167 18 32 82 106 157 182 80 81 128 136 128 149 0 14 -21 34 -72 66 -119 75
-207 136 -248 171 -51 44 -87 123 -103 223 l-12 82 -19 -39z"/>
<path d="M710 7312 c0 -44 -34 -160 -65 -227 -17 -34 -51 -82 -81 -112 -46
-44 -51 -53 -38 -64 25 -21 65 -96 80 -151 8 -29 18 -104 22 -167 l7 -115 26
50 c52 95 61 229 24 335 -15 42 -15 44 19 113 57 117 68 206 40 308 -18 62
-34 76 -34 30z"/>
<path d="M12056 7282 c-28 -102 -17 -191 40 -308 34 -69 34 -71 19 -113 -37
-106 -28 -240 24 -335 l26 -50 7 115 c4 63 14 138 22 167 15 55 55 130 80 151
13 11 8 20 -38 64 -30 30 -64 78 -81 112 -31 67 -65 183 -65 227 0 46 -16 32
-34 -30z"/>
<path d="M165 6838 c-31 -17 -45 -39 -45 -74 0 -28 10 -42 66 -91 145 -128
186 -208 185 -368 l0 -100 30 35 c55 65 74 117 74 206 0 73 -3 87 -38 158 -56
112 -187 247 -239 246 -7 0 -22 -6 -33 -12z"/>
<path d="M12555 6832 c-57 -35 -152 -149 -192 -229 -35 -70 -38 -84 -38 -157
0 -89 19 -141 74 -206 l30 -35 0 100 c-1 160 40 240 185 368 52 46 66 64 66
87 0 42 -9 59 -41 75 -36 19 -48 19 -84 -3z"/>
<path d="M125 6595 c-39 -38 -33 -72 29 -156 65 -90 76 -125 76 -253 0 -99 0
-99 20 -81 33 29 69 116 76 181 11 103 -40 252 -106 308 -39 32 -64 33 -95 1z"/>
<path d="M12580 6594 c-66 -56 -117 -205 -106 -308 7 -65 43 -152 76 -181 20
-18 20 -18 20 81 0 128 11 163 76 253 62 84 68 118 29 156 -31 32 -56 31 -95
-1z"/>
<path d="M83 6365 c-34 -24 -38 -66 -11 -143 27 -80 30 -195 6 -259 -9 -24
-12 -43 -8 -43 16 0 84 85 107 136 34 75 40 141 18 220 -14 54 -24 70 -49 85
-37 23 -36 23 -63 4z"/>
<path d="M12658 6364 c-41 -22 -61 -76 -62 -169 -1 -67 3 -89 25 -136 25 -53
92 -139 109 -139 4 0 1 19 -8 43 -24 64 -21 179 6 259 27 77 23 119 -11 143
-26 18 -25 18 -59 -1z"/>
<path d="M158 5302 l37 -77 -3 -123 c-2 -119 -2 -123 22 -147 32 -32 39 -31
78 4 32 28 33 32 33 108 -1 63 -6 89 -27 134 -28 62 -82 122 -140 156 l-36 21
36 -76z"/>
<path d="M12623 5344 c-99 -68 -147 -157 -147 -277 -1 -77 0 -80 32 -108 39
-35 46 -36 78 -4 24 24 24 28 22 147 l-3 123 37 78 c20 42 36 77 35 77 -1 -1
-25 -17 -54 -36z"/>
<path d="M331 5189 c11 -34 22 -91 25 -127 6 -70 4 -82 -50 -209 -25 -58 -26
-65 -12 -97 10 -24 23 -37 41 -42 43 -11 74 11 103 74 24 51 27 68 26 162 0
121 -19 178 -82 243 -64 67 -73 66 -51 -4z"/>
<path d="M12433 5208 c-26 -24 -57 -67 -72 -98 -22 -48 -25 -69 -26 -160 0
-94 3 -111 27 -162 29 -63 60 -85 103 -74 18 5 31 18 41 42 14 32 13 39 -12
97 -54 127 -56 139 -50 209 3 36 14 94 25 127 10 34 17 61 15 61 -3 0 -25 -19
-51 -42z"/>
<path d="M485 5133 c3 -10 13 -47 22 -83 30 -130 -1 -246 -102 -376 -70 -89
-73 -141 -10 -171 62 -29 106 4 179 138 71 132 87 269 41 366 -33 72 -155 189
-130 126z"/>
<path d="M12255 5105 c-118 -115 -128 -281 -29 -464 73 -134 117 -167 179
-138 63 30 60 82 -10 171 -101 130 -132 246 -102 376 9 36 19 73 22 83 12 30
-11 19 -60 -28z"/>
<path d="M644 5035 c2 -11 12 -45 20 -75 9 -30 16 -84 16 -120 0 -80 -24 -134
-139 -309 -44 -68 -81 -132 -81 -143 0 -21 27 -35 218 -109 73 -28 152 -65
175 -83 50 -38 101 -118 126 -201 19 -59 19 -59 28 -30 4 17 8 60 7 97 0 56
-6 79 -37 140 -46 92 -110 166 -193 220 -46 30 -63 47 -58 58 39 93 48 133 52
232 6 141 -17 215 -90 291 -31 33 -48 45 -44 32z"/>
<path d="M12107 5000 c-68 -76 -90 -151 -85 -288 4 -99 13 -139 52 -232 5 -11
-12 -28 -58 -58 -83 -54 -147 -128 -193 -220 -31 -61 -37 -84 -37 -140 -1 -37
3 -80 7 -97 9 -29 9 -29 28 30 25 83 76 163 126 201 23 18 102 55 175 83 191
74 218 88 218 109 0 11 -37 75 -81 143 -45 68 -95 152 -111 187 -28 58 -30 70
-26 145 3 45 13 104 22 130 10 27 15 51 13 53 -2 3 -25 -18 -50 -46z"/>
<path d="M794 4926 c3 -10 14 -60 22 -110 19 -110 13 -196 -20 -279 l-24 -58
32 -16 c87 -45 165 -139 221 -269 36 -83 45 -80 45 14 0 99 -42 200 -117 282
-33 37 -34 40 -27 102 7 78 -15 193 -50 252 -28 48 -93 113 -82 82z"/>
<path d="M11965 4899 c-20 -23 -45 -60 -55 -83 -27 -61 -43 -163 -35 -229 6
-56 5 -60 -28 -96 -75 -83 -117 -184 -117 -283 0 -94 9 -97 45 -14 56 130 134
224 221 269 l32 16 -26 63 c-22 54 -26 78 -26 163 1 56 8 128 17 165 8 36 14
66 13 68 -2 1 -20 -16 -41 -39z"/>
<path d="M515 4278 c-31 -17 -45 -39 -45 -73 0 -42 31 -69 105 -90 104 -30
181 -71 231 -122 42 -43 99 -142 118 -205 7 -22 8 -21 21 12 21 54 18 151 -6
215 -37 100 -149 192 -303 250 -73 28 -91 30 -121 13z"/>
<path d="M12145 4257 c-206 -85 -306 -203 -304 -360 0 -34 7 -78 14 -97 13
-33 14 -34 21 -12 19 63 76 162 118 205 50 51 127 92 231 122 71 20 105 48
105 86 0 41 -9 58 -41 74 -39 21 -53 19 -144 -18z"/>
<path d="M582 4055 c-63 -27 -53 -97 22 -143 25 -15 64 -38 86 -52 48 -29 101
-104 132 -187 29 -78 35 -82 47 -37 30 110 -6 226 -102 331 -71 77 -136 108
-185 88z"/>
<path d="M12143 4050 c-117 -52 -223 -211 -223 -335 0 -50 19 -120 29 -109 4
5 17 35 29 67 31 83 84 158 132 187 22 14 61 37 86 52 24 15 50 39 56 53 16
36 0 76 -38 91 -26 11 -36 10 -71 -6z"/>
<path d="M618 3809 c-12 -7 -18 -22 -18 -49 0 -32 9 -49 59 -109 62 -74 94
-142 107 -226 l7 -50 21 45 c16 34 21 65 21 130 0 73 -4 93 -28 142 -15 31
-45 72 -67 92 -41 36 -71 44 -102 25z"/>
<path d="M12080 3784 c-22 -20 -52 -61 -67 -92 -24 -49 -28 -69 -28 -142 0
-65 5 -96 21 -130 l21 -45 7 50 c13 84 45 152 107 226 50 60 59 77 59 110 0
28 -5 41 -19 49 -34 18 -60 11 -101 -26z"/>
<path d="M1040 2905 c0 -1 18 -14 40 -29 62 -41 115 -116 145 -206 35 -106 80
-143 131 -106 14 11 19 26 18 63 -1 97 -92 212 -198 251 -44 17 -136 35 -136
27z"/>
<path d="M11697 2900 c-145 -25 -269 -150 -271 -273 -1 -37 4 -52 18 -63 51
-37 96 0 131 106 30 90 83 165 145 206 39 26 48 35 33 33 -5 -1 -30 -5 -56 -9z"/>
<path d="M1318 2811 c27 -33 62 -85 77 -117 23 -49 27 -70 26 -139 0 -44 4
-95 10 -113 20 -62 100 -76 129 -22 15 28 15 116 0 171 -38 141 -138 246 -263
273 -27 7 -27 5 21 -53z"/>
<path d="M11473 2856 c-112 -36 -197 -132 -233 -265 -15 -55 -15 -143 0 -171
29 -54 109 -40 129 22 6 18 10 69 10 113 -1 69 3 90 26 139 15 32 49 84 76
117 28 32 46 59 42 58 -4 0 -27 -6 -50 -13z"/>
<path d="M1506 2794 c97 -119 123 -233 89 -384 -28 -124 -29 -133 -5 -163 31
-40 89 -38 124 3 31 38 41 95 40 230 -1 125 -23 193 -85 263 -40 46 -116 90
-177 102 l-34 7 48 -58z"/>
<path d="M11263 2831 c-145 -50 -217 -167 -218 -356 0 -131 10 -188 41 -225
35 -41 93 -43 124 -3 24 30 23 39 -5 163 -34 150 -8 265 88 383 26 31 42 57
35 57 -7 -1 -36 -9 -65 -19z"/>
<path d="M1650 2814 c0 -3 18 -23 39 -46 55 -57 101 -148 108 -211 3 -30 -4
-111 -17 -192 -34 -223 -34 -226 -19 -236 8 -4 107 -5 220 -2 l206 6 57 -26
c38 -18 81 -50 123 -93 l64 -65 -7 38 c-25 136 -165 260 -349 308 -32 8 -72
15 -87 15 -27 0 -28 2 -28 53 0 30 -9 89 -20 131 -42 166 -137 281 -262 317
-15 4 -28 5 -28 3z"/>
<path d="M11109 2806 c-121 -42 -208 -151 -249 -312 -11 -42 -20 -101 -20
-131 0 -51 -1 -53 -28 -53 -15 0 -55 -7 -87 -15 -184 -48 -324 -172 -349 -308
l-7 -38 64 65 c42 43 85 75 123 93 l57 26 206 -6 c113 -3 212 -2 220 2 15 10
15 13 -19 236 -13 81 -20 162 -17 192 7 64 53 154 109 212 22 23 38 44 37 46
-2 2 -20 -2 -40 -9z"/>
<path d="M1875 2721 c75 -98 118 -200 123 -291 l4 -78 57 -6 c95 -11 204 -71
309 -170 36 -34 42 -37 42 -20 0 12 -14 48 -31 82 -37 75 -112 145 -204 190
-39 20 -65 39 -65 49 0 35 -71 160 -117 207 -43 43 -127 96 -153 96 -5 0 10
-27 35 -59z"/>
<path d="M10901 2756 c-67 -35 -138 -112 -177 -192 -19 -39 -34 -78 -34 -87 0
-10 -26 -29 -65 -49 -92 -45 -167 -115 -204 -190 -17 -34 -31 -70 -31 -82 0
-17 6 -14 43 20 104 99 213 159 308 170 l57 6 4 78 c5 91 48 193 123 291 48
64 44 71 -24 35z"/>
<path d="M1880 2082 c-59 -29 -67 -104 -15 -138 23 -15 37 -15 133 -4 176 20
269 -9 386 -122 l58 -56 -6 50 c-19 140 -125 243 -284 277 -84 18 -231 14
-272 -7z"/>
<path d="M10635 2086 c-153 -37 -253 -138 -271 -274 l-6 -50 58 56 c117 113
210 142 386 122 96 -11 110 -11 133 4 52 34 44 109 -15 138 -42 21 -205 24
-285 4z"/>
<path d="M2002 1885 c-25 -32 -26 -34 -12 -70 13 -34 56 -51 149 -59 91 -8
150 -38 235 -118 33 -32 62 -58 63 -58 9 0 0 47 -18 94 -46 123 -191 226 -329
234 -63 4 -68 3 -88 -23z"/>
<path d="M10609 1887 c-120 -50 -193 -118 -229 -213 -17 -47 -26 -94 -17 -94
1 0 30 26 63 58 87 82 141 108 246 120 49 5 99 17 112 25 34 23 42 64 18 96
-27 37 -114 40 -193 8z"/>
<path d="M2167 1698 c-16 -6 -29 -19 -33 -35 -12 -45 11 -70 103 -117 91 -45
164 -110 198 -175 9 -18 18 -31 19 -29 11 12 -16 154 -37 195 -24 47 -93 119
-133 141 -39 20 -89 29 -117 20z"/>
<path d="M10559 1694 c-60 -18 -142 -91 -175 -157 -22 -41 -49 -183 -38 -195
1 -2 10 11 19 29 34 65 107 130 198 175 92 47 115 72 103 117 -9 36 -50 47
-107 31z"/>
<path d="M3686 1232 c-28 -3 -26 -6 33 -37 130 -70 222 -159 256 -249 l17 -43
51 19 c73 28 211 21 321 -16 43 -15 80 -25 82 -23 8 8 -39 58 -82 88 -60 41
-144 68 -234 76 -74 6 -75 6 -137 63 -95 89 -207 133 -307 122z"/>
<path d="M9032 1229 c-73 -9 -153 -51 -225 -119 -62 -57 -63 -57 -137 -63 -90
-8 -174 -35 -234 -76 -43 -30 -90 -80 -82 -88 2 -2 39 8 82 23 110 37 248 44
321 16 l51 -19 17 43 c34 90 126 179 256 249 57 30 59 33 33 36 -16 3 -53 1
-82 -2z"/>
<path d="M3501 1193 c-19 -4 -10 -11 56 -43 146 -71 178 -123 253 -409 16 -63
36 -122 45 -130 14 -14 28 -9 143 50 177 92 249 119 317 119 57 0 158 -28 201
-57 39 -25 28 3 -21 56 -28 30 -69 60 -108 77 -59 27 -69 29 -197 29 -100 0
-146 -4 -177 -16 l-42 -16 -31 64 c-47 94 -145 195 -234 238 -70 34 -151 50
-205 38z"/>
<path d="M9176 1189 c-113 -27 -255 -148 -316 -272 l-31 -64 -42 16 c-31 12
-77 16 -177 16 -128 0 -138 -2 -197 -29 -39 -17 -80 -47 -108 -77 -49 -53 -60
-81 -21 -56 43 29 144 57 201 57 68 0 140 -27 317 -119 115 -59 129 -64 143
-50 9 8 29 67 45 130 75 286 107 338 252 408 77 37 78 39 47 45 -39 8 -63 7
-113 -5z"/>
<path d="M3333 1153 c-18 -2 -33 -7 -32 -11 0 -4 27 -20 59 -35 79 -37 163
-115 195 -181 14 -29 34 -95 45 -145 10 -51 26 -103 35 -117 33 -50 105 -39
134 21 12 25 12 38 -3 101 -37 154 -127 289 -229 340 -49 25 -138 37 -204 27z"/>
<path d="M9325 1151 c-131 -32 -247 -177 -291 -365 -15 -63 -15 -76 -3 -101
29 -60 101 -71 134 -21 9 14 25 66 35 117 11 50 31 116 45 145 32 66 116 144
195 181 32 15 59 31 59 34 2 16 -122 22 -174 10z"/>
<path d="M3180 1092 c-64 -5 -63 -12 11 -49 100 -50 168 -119 198 -202 29 -80
58 -111 105 -111 69 0 86 70 37 156 -77 133 -222 218 -351 206z"/>
<path d="M9532 1089 c-93 -17 -206 -104 -263 -203 -49 -86 -32 -156 37 -156
47 0 76 31 105 111 30 83 98 152 198 202 40 20 67 39 60 41 -31 10 -97 12
-137 5z"/>
<path d="M2930 1036 l-35 -13 60 -17 c89 -26 112 -41 196 -122 66 -64 82 -74
112 -74 40 0 57 20 57 65 0 35 -71 110 -135 143 -40 20 -67 26 -135 29 -54 2
-98 -2 -120 -11z"/>
<path d="M9670 1041 c-87 -27 -190 -117 -190 -166 0 -45 17 -65 57 -65 30 0
46 10 112 74 84 81 107 96 196 122 l60 17 -35 13 c-38 14 -160 17 -200 5z"/>
<path d="M4214 720 c-83 -21 -186 -71 -220 -105 -31 -31 -32 -87 -4 -115 31
-31 80 -26 152 18 117 71 164 86 258 86 66 -1 101 -7 155 -27 38 -14 71 -25
72 -23 2 2 -12 25 -30 51 -82 120 -215 159 -383 115z"/>
<path d="M8367 726 c-63 -17 -124 -62 -165 -121 -18 -27 -31 -49 -29 -51 1 -2
34 9 72 23 54 20 89 26 155 27 94 0 141 -15 258 -86 72 -44 121 -49 152 -18
28 28 27 84 -4 115 -57 57 -247 126 -345 124 -25 0 -68 -6 -94 -13z"/>
<path d="M6042 592 c-75 -27 -87 -42 -35 -42 119 0 282 -55 356 -120 l37 -32
35 31 c73 64 180 103 326 119 l74 9 -50 24 c-43 21 -64 24 -155 24 -90 -1
-114 -4 -167 -27 l-63 -26 -62 26 c-86 34 -220 41 -296 14z"/>
<path d="M4285 551 c-82 -23 -105 -44 -105 -95 0 -33 36 -66 72 -66 16 0 61
11 100 25 104 36 168 31 306 -24 l52 -21 -14 28 c-25 47 -79 94 -144 125 -52
24 -79 30 -150 33 -48 2 -100 -1 -117 -5z"/>
<path d="M8317 550 c-88 -23 -179 -87 -213 -152 l-14 -28 52 21 c138 55 202
60 306 24 87 -30 121 -31 150 -5 42 39 24 100 -36 126 -44 19 -191 27 -245 14z"/>
<path d="M5911 494 c-25 -9 -56 -23 -70 -33 -25 -16 -23 -16 69 -22 163 -9
206 -39 402 -284 48 -61 69 -80 88 -80 19 0 40 19 88 80 196 245 239 275 402
284 93 6 94 6 68 23 -136 89 -375 44 -530 -100 l-28 -26 -27 26 c-127 116
-339 177 -462 132z"/>
<path d="M5800 401 c-40 -13 -105 -48 -118 -64 -10 -12 1 -15 77 -19 71 -4
102 -11 153 -35 65 -31 136 -96 184 -168 49 -74 75 -95 114 -95 65 0 95 60 64
126 -10 21 -52 72 -94 114 -99 100 -183 144 -285 147 -38 1 -81 -1 -95 -6z"/>
<path d="M6797 386 c-77 -32 -155 -93 -218 -168 -58 -70 -73 -102 -64 -138 10
-40 35 -60 75 -60 39 0 65 21 114 95 48 72 119 137 184 168 51 24 82 31 153
35 102 6 104 14 15 59 -75 39 -181 42 -259 9z"/>
<path d="M4416 379 c-33 -26 -34 -62 -2 -87 19 -15 47 -20 123 -25 105 -5 161
-22 231 -69 47 -32 48 -32 28 17 -23 55 -96 125 -161 156 -77 37 -177 41 -219
8z"/>
<path d="M8165 371 c-65 -31 -138 -101 -161 -156 -20 -49 -19 -49 29 -17 69
47 125 64 230 69 108 7 147 24 147 68 0 69 -135 89 -245 36z"/>
<path d="M5604 246 c-52 -24 -77 -46 -52 -46 53 0 191 -25 227 -41 25 -11 70
-44 102 -74 61 -59 97 -74 135 -56 80 36 39 132 -85 195 -102 53 -242 62 -327
22z"/>
<path d="M6944 255 c-134 -42 -224 -129 -196 -191 15 -31 53 -48 88 -40 14 4
52 31 83 61 32 30 77 63 102 74 36 16 174 41 227 41 25 0 0 22 -52 46 -41 19
-66 24 -131 23 -44 -1 -98 -7 -121 -14z"/>
<path d="M5508 156 c-51 -18 -119 -60 -143 -87 -20 -22 -20 -22 0 -14 11 4 54
10 96 12 70 5 83 2 166 -31 50 -20 101 -36 115 -36 35 0 68 27 68 56 0 81
-185 142 -302 100z"/>
<path d="M7090 151 c-89 -32 -128 -100 -78 -135 33 -23 61 -20 161 20 83 33
96 36 166 31 42 -2 85 -8 96 -12 43 -17 -26 43 -88 76 -79 42 -174 49 -257 20z"/>
</g>
</svg>
