<?xml version="1.0" standalone="no"?>
<!DOCTYPE svg PUBLIC "-//W3C//DTD SVG 20010904//EN"
 "http://www.w3.org/TR/2001/REC-SVG-20010904/DTD/svg10.dtd">
<svg version="1.0" xmlns="http://www.w3.org/2000/svg"
 width="1280.000000pt" height="1280.000000pt" viewBox="0 0 1280.000000 1280.000000"
 preserveAspectRatio="xMidYMid meet">
<metadata>
Created by potrace 1.15, written by Peter Selinger 2001-2017
</metadata>
<g transform="translate(0.000000,1280.000000) scale(0.100000,-0.100000)"
fill="#000000" stroke="none">
<path d="M5975 10390 l-530 -5 -150 -37 c-140 -34 -832 -173 -1238 -249 l-179
-33 -221 -186 c-259 -216 -1254 -1057 -1310 -1105 -27 -25 -37 -42 -37 -63 0
-21 54 -110 203 -333 228 -342 344 -520 1192 -1824 1418 -2180 2656 -4060
2715 -4123 13 -13 31 -22 43 -20 16 2 88 109 287 428 315 503 1357 2156 2405
3815 1200 1900 1318 2091 1311 2117 -4 14 -116 114 -274 245 -680 563 -832
691 -1045 878 l-228 200 -102 17 c-56 9 -425 77 -820 152 l-718 136 -387 -2
c-213 -2 -625 -5 -917 -8z m1434 -216 c58 -8 162 -26 231 -40 120 -23 659
-141 690 -151 8 -3 -39 -18 -105 -33 -377 -86 -488 -111 -565 -125 -73 -14
-243 -18 -1205 -25 -697 -5 -1153 -5 -1208 1 -88 9 -272 43 -631 115 l-190 38
275 69 c371 92 650 147 789 157 63 4 497 8 964 9 723 1 864 -1 955 -15z m1544
-383 c90 -64 139 -104 653 -548 493 -425 521 -449 514 -456 -3 -2 -311 -66
-685 -142 -374 -75 -773 -157 -888 -181 -114 -24 -211 -44 -216 -44 -17 0
-108 155 -405 684 -202 361 -293 532 -285 537 14 8 229 50 739 143 195 36 373
69 395 74 50 11 82 -1 178 -67z m-4863 24 c63 -9 212 -34 330 -56 118 -23 339
-62 490 -89 151 -26 274 -51 273 -56 -5 -26 -354 -650 -575 -1026 -87 -150
-114 -188 -131 -188 -34 0 -653 116 -1067 201 -632 128 -750 154 -748 161 2 3
48 42 103 86 55 43 155 129 223 190 67 61 260 230 430 374 514 441 495 425
528 422 16 -2 81 -11 144 -19z m3402 -349 c43 -80 159 -284 258 -456 243 -419
342 -601 335 -609 -4 -3 -527 -9 -1163 -13 -2241 -14 -2192 -14 -2192 1 0 22
90 187 315 576 114 198 244 422 287 497 l79 138 692 3 c381 1 832 3 1002 4
l310 2 77 -143z m2625 -908 c-61 -75 -750 -1157 -1379 -2168 -1618 -2599
-1959 -3143 -1978 -3164 -10 -10 -2 18 137 474 231 759 1426 4496 1444 4514 4
5 158 39 341 77 183 37 511 106 728 153 347 75 709 152 733 155 5 1 -7 -18
-26 -41z m-6907 -112 c283 -57 673 -134 865 -170 193 -37 360 -69 372 -71 18
-4 43 -71 193 -527 269 -822 1051 -3174 1264 -3806 106 -315 190 -570 185
-565 -10 11 -665 1000 -1104 1668 -508 773 -1025 1567 -1648 2530 -302 468
-578 894 -613 948 -35 54 -64 100 -64 103 0 3 8 3 18 0 9 -3 249 -52 532 -110z
m4910 -252 c0 -16 -605 -1930 -817 -2584 -336 -1037 -501 -1555 -744 -2342
-62 -203 -116 -368 -119 -368 -3 0 -26 62 -52 138 -25 75 -132 389 -238 697
-220 641 -1483 4435 -1478 4440 2 2 638 8 1413 13 2017 13 2035 13 2035 6z"/>
</g>
</svg>
